<?xml version="1.0" encoding="UTF-8"?>
<svg xmlns="http://www.w3.org/2000/svg" xmlns:xlink="http://www.w3.org/1999/xlink" width="48pt" height="48pt" viewBox="0 0 48 48" version="1.2">
<defs>
<clipPath id="clip1">
  <path d="M 0.488281 0 L 47.507812 0 L 47.507812 47.019531 L 0.488281 47.019531 Z M 0.488281 0 "/>
</clipPath>
</defs>
<g id="surface1">
<g clip-path="url(#clip1)" clip-rule="nonzero">
<path style=" stroke:none;fill-rule:nonzero;fill:rgb(96.078491%,67.449951%,21.569824%);fill-opacity:1;" d="M 24 0 C 36.984375 0 47.511719 10.527344 47.511719 23.511719 C 47.511719 36.496094 36.984375 47.019531 24 47.019531 C 11.015625 47.019531 0.488281 36.496094 0.488281 23.511719 C 0.488281 10.527344 11.015625 0 24 0 Z M 24 0 "/>
</g>
<path style=" stroke:none;fill-rule:nonzero;fill:rgb(99.609375%,99.609375%,99.21875%);fill-opacity:1;" d="M 24.867188 25.171875 L 33.800781 25.171875 C 33.992188 25.171875 34.082031 25.171875 34.09375 24.921875 C 34.167969 24.011719 34.167969 23.097656 34.09375 22.1875 C 34.09375 22.011719 34.007812 21.9375 33.816406 21.9375 L 16.035156 21.9375 C 15.816406 21.9375 15.757812 22.011719 15.757812 22.21875 L 15.757812 24.832031 C 15.757812 25.171875 15.757812 25.171875 16.109375 25.171875 Z M 33.097656 18.882812 C 33.121094 18.816406 33.121094 18.742188 33.097656 18.675781 C 32.945312 18.351562 32.769531 18.042969 32.566406 17.75 C 32.257812 17.253906 31.890625 16.796875 31.476562 16.382812 C 31.28125 16.136719 31.054688 15.910156 30.800781 15.722656 C 29.53125 14.640625 28.019531 13.875 26.394531 13.488281 C 25.574219 13.304688 24.734375 13.21875 23.894531 13.226562 L 16.003906 13.226562 C 15.785156 13.226562 15.753906 13.3125 15.753906 13.503906 L 15.753906 18.71875 C 15.753906 18.941406 15.753906 19 16.035156 19 L 32.992188 19 C 32.992188 19 33.136719 18.96875 33.167969 18.882812 L 33.09375 18.882812 Z M 33.097656 28.226562 C 32.847656 28.199219 32.59375 28.199219 32.34375 28.226562 L 16.050781 28.226562 C 15.832031 28.226562 15.757812 28.226562 15.757812 28.519531 L 15.757812 33.621094 C 15.757812 33.855469 15.757812 33.914062 16.050781 33.914062 L 23.574219 33.914062 C 23.933594 33.941406 24.292969 33.917969 24.644531 33.839844 C 25.738281 33.761719 26.8125 33.527344 27.835938 33.136719 C 28.207031 33.007812 28.566406 32.839844 28.90625 32.636719 L 29.007812 32.636719 C 30.773438 31.71875 32.207031 30.277344 33.109375 28.507812 C 33.109375 28.507812 33.210938 28.285156 33.097656 28.230469 Z M 12.804688 36.558594 L 12.804688 28.433594 C 12.804688 28.242188 12.804688 28.214844 12.570312 28.214844 L 9.378906 28.214844 C 9.203125 28.214844 9.128906 28.214844 9.128906 27.976562 L 9.128906 25.1875 L 12.539062 25.1875 C 12.730469 25.1875 12.804688 25.1875 12.804688 24.9375 L 12.804688 22.175781 C 12.804688 21.996094 12.804688 21.953125 12.570312 21.953125 L 9.378906 21.953125 C 9.203125 21.953125 9.128906 21.953125 9.128906 21.71875 L 9.128906 19.132812 C 9.128906 18.972656 9.128906 18.929688 9.363281 18.929688 L 12.523438 18.929688 C 12.746094 18.929688 12.804688 18.929688 12.804688 18.648438 L 12.804688 10.730469 C 12.804688 10.492188 12.804688 10.433594 13.097656 10.433594 L 24.117188 10.433594 C 24.917969 10.464844 25.710938 10.554688 26.496094 10.699219 C 28.117188 11 29.675781 11.578125 31.097656 12.402344 C 32.039062 12.960938 32.910156 13.628906 33.683594 14.402344 C 34.265625 15.007812 34.789062 15.660156 35.253906 16.355469 C 35.71875 17.0625 36.101562 17.816406 36.402344 18.605469 C 36.441406 18.808594 36.636719 18.949219 36.839844 18.914062 L 39.472656 18.914062 C 39.808594 18.914062 39.808594 18.914062 39.824219 19.238281 L 39.824219 21.648438 C 39.824219 21.882812 39.734375 21.941406 39.5 21.941406 L 37.472656 21.941406 C 37.265625 21.941406 37.207031 21.941406 37.222656 22.207031 C 37.304688 23.101562 37.304688 24 37.222656 24.894531 C 37.222656 25.144531 37.222656 25.171875 37.503906 25.171875 L 39.824219 25.171875 C 39.925781 25.304688 39.824219 25.4375 39.824219 25.570312 C 39.835938 25.742188 39.835938 25.914062 39.824219 26.085938 L 39.824219 27.863281 C 39.824219 28.113281 39.75 28.1875 39.527344 28.1875 L 36.75 28.1875 C 36.558594 28.148438 36.371094 28.273438 36.324219 28.464844 C 35.664062 30.183594 34.605469 31.726562 33.238281 32.960938 C 32.738281 33.410156 32.214844 33.835938 31.667969 34.226562 C 31.078125 34.5625 30.507812 34.917969 29.902344 35.195312 C 28.792969 35.695312 27.628906 36.0625 26.433594 36.296875 C 25.300781 36.5 24.152344 36.59375 22.996094 36.574219 L 12.800781 36.574219 L 12.800781 36.5625 Z M 12.804688 36.558594 "/>
</g>
</svg>
