<?xml version="1.0" encoding="UTF-8"?>
<svg xmlns="http://www.w3.org/2000/svg" xmlns:xlink="http://www.w3.org/1999/xlink" width="30pt" height="30.000001pt" viewBox="0 0 30 30.000001" version="1.2">
<defs>
<clipPath id="clip1">
  <path d="M 0.484375 0 L 29.515625 0 L 29.515625 29.03125 L 0.484375 29.03125 Z M 0.484375 0 "/>
</clipPath>
<clipPath id="clip2">
  <path d="M 4.078125 4.550781 L 25.851562 4.550781 L 25.851562 24.148438 L 4.078125 24.148438 Z M 4.078125 4.550781 "/>
</clipPath>
</defs>
<g id="surface1">
<g clip-path="url(#clip1)" clip-rule="nonzero">
<path style=" stroke:none;fill-rule:nonzero;fill:rgb(11.759949%,11.759949%,11.759949%);fill-opacity:1;" d="M 29.515625 14.515625 C 29.515625 15.46875 29.421875 16.414062 29.238281 17.347656 C 29.050781 18.28125 28.777344 19.191406 28.410156 20.070312 C 28.046875 20.953125 27.597656 21.789062 27.070312 22.582031 C 26.539062 23.375 25.9375 24.105469 25.265625 24.78125 C 24.589844 25.453125 23.855469 26.054688 23.066406 26.585938 C 22.273438 27.117188 21.4375 27.5625 20.554688 27.925781 C 19.675781 28.292969 18.765625 28.566406 17.832031 28.753906 C 16.898438 28.9375 15.953125 29.03125 15 29.03125 C 14.046875 29.03125 13.101562 28.9375 12.167969 28.753906 C 11.234375 28.566406 10.324219 28.292969 9.445312 27.925781 C 8.5625 27.5625 7.726562 27.117188 6.933594 26.585938 C 6.144531 26.054688 5.410156 25.453125 4.734375 24.78125 C 4.0625 24.105469 3.460938 23.375 2.929688 22.582031 C 2.402344 21.789062 1.953125 20.953125 1.589844 20.070312 C 1.222656 19.191406 0.949219 18.28125 0.761719 17.347656 C 0.578125 16.414062 0.484375 15.46875 0.484375 14.515625 C 0.484375 13.5625 0.578125 12.617188 0.761719 11.683594 C 0.949219 10.75 1.222656 9.839844 1.589844 8.960938 C 1.953125 8.082031 2.402344 7.242188 2.929688 6.453125 C 3.460938 5.660156 4.0625 4.925781 4.734375 4.25 C 5.410156 3.578125 6.144531 2.976562 6.933594 2.445312 C 7.726562 1.917969 8.5625 1.46875 9.445312 1.105469 C 10.324219 0.738281 11.234375 0.464844 12.167969 0.277344 C 13.101562 0.09375 14.046875 0 15 0 C 15.953125 0 16.898438 0.09375 17.832031 0.277344 C 18.765625 0.464844 19.675781 0.738281 20.554688 1.105469 C 21.4375 1.46875 22.273438 1.917969 23.066406 2.445312 C 23.855469 2.976562 24.589844 3.578125 25.265625 4.25 C 25.9375 4.925781 26.539062 5.660156 27.070312 6.453125 C 27.597656 7.242188 28.046875 8.082031 28.410156 8.960938 C 28.777344 9.839844 29.050781 10.75 29.238281 11.683594 C 29.421875 12.617188 29.515625 13.5625 29.515625 14.515625 Z M 29.515625 14.515625 "/>
</g>
<g clip-path="url(#clip2)" clip-rule="nonzero">
<path style=" stroke:none;fill-rule:nonzero;fill:rgb(100%,100%,100%);fill-opacity:1;" d="M 18.25 24.070312 C 18.214844 24.078125 18.179688 24.082031 18.144531 24.082031 L 18.070312 24.015625 L 18.070312 23.429688 C 18.070312 22.886719 18.078125 22.0625 18.078125 21.121094 C 18.089844 20.558594 17.972656 20.019531 17.726562 19.511719 C 19.84375 19.132812 22.21875 18.003906 22.21875 13.964844 C 22.234375 12.863281 21.890625 11.886719 21.183594 11.035156 C 21.449219 10.058594 21.382812 9.105469 20.984375 8.175781 C 20.929688 8.042969 20.835938 7.953125 20.695312 7.910156 C 20.570312 7.875 20.445312 7.859375 20.316406 7.863281 C 19.289062 7.953125 18.363281 8.308594 17.546875 8.929688 C 16.699219 8.722656 15.839844 8.617188 14.964844 8.613281 C 14.09375 8.613281 13.234375 8.71875 12.386719 8.929688 C 11.566406 8.304688 10.640625 7.949219 9.609375 7.859375 C 9.480469 7.859375 9.355469 7.875 9.230469 7.90625 C 9.089844 7.953125 8.996094 8.042969 8.941406 8.175781 C 8.546875 9.105469 8.480469 10.058594 8.746094 11.035156 C 8.039062 11.886719 7.695312 12.863281 7.710938 13.964844 C 7.710938 18.003906 10.082031 19.136719 12.195312 19.515625 C 12.078125 19.75 11.992188 19.996094 11.9375 20.25 C 11.683594 20.339844 11.417969 20.390625 11.148438 20.394531 C 10.757812 20.402344 10.417969 20.28125 10.121094 20.03125 C 10.09375 19.996094 10.0625 19.964844 10.023438 19.941406 C 9.957031 19.871094 9.898438 19.800781 9.84375 19.722656 L 9.824219 19.703125 C 9.820312 19.695312 9.8125 19.683594 9.808594 19.675781 L 9.730469 19.578125 C 9.703125 19.550781 9.679688 19.519531 9.660156 19.488281 C 9.445312 19.117188 9.15625 18.816406 8.796875 18.585938 C 8.4375 18.351562 8.042969 18.210938 7.617188 18.160156 C 7.125 18.160156 6.796875 18.332031 6.699219 18.644531 C 6.546875 19.136719 7.082031 19.5 7.34375 19.671875 C 7.808594 19.984375 8.121094 20.410156 8.28125 20.941406 C 8.394531 21.234375 8.554688 21.5 8.753906 21.738281 C 8.953125 21.980469 9.1875 22.183594 9.453125 22.351562 C 9.71875 22.519531 10.003906 22.640625 10.308594 22.71875 C 10.617188 22.796875 10.925781 22.824219 11.242188 22.804688 C 11.445312 22.804688 11.648438 22.789062 11.855469 22.765625 L 11.863281 24.019531 L 11.78125 24.085938 C 11.753906 24.085938 11.71875 24.085938 11.75 24.089844 C 11.371094 23.96875 11 23.820312 10.640625 23.652344 C 10.28125 23.484375 9.929688 23.296875 9.59375 23.089844 C 9.253906 22.882812 8.929688 22.65625 8.617188 22.410156 C 8.304688 22.164062 8.011719 21.902344 7.730469 21.621094 C 7.449219 21.34375 7.1875 21.046875 6.941406 20.738281 C 6.699219 20.425781 6.472656 20.105469 6.265625 19.769531 C 6.058594 19.429688 5.875 19.085938 5.707031 18.726562 C 5.542969 18.367188 5.398438 18.003906 5.277344 17.628906 C 5.15625 17.253906 5.058594 16.875 4.980469 16.488281 C 4.90625 16.101562 4.851562 15.710938 4.824219 15.320312 C 4.792969 14.929688 4.785156 14.535156 4.804688 14.140625 C 4.820312 13.75 4.859375 13.359375 4.925781 12.972656 C 4.988281 12.582031 5.074219 12.199219 5.183594 11.820312 C 5.292969 11.441406 5.421875 11.074219 5.574219 10.710938 C 5.730469 10.347656 5.902344 9.992188 6.097656 9.652344 C 6.292969 9.308594 6.507812 8.976562 6.742188 8.660156 C 6.976562 8.339844 7.230469 8.039062 7.5 7.75 C 7.773438 7.460938 8.058594 7.1875 8.363281 6.933594 C 8.664062 6.679688 8.980469 6.441406 9.3125 6.222656 C 9.644531 6.003906 9.988281 5.804688 10.34375 5.625 C 10.699219 5.449219 11.0625 5.289062 11.4375 5.152344 C 11.808594 5.015625 12.191406 4.902344 12.578125 4.808594 C 12.964844 4.71875 13.355469 4.648438 13.753906 4.601562 C 14.148438 4.554688 14.546875 4.527344 14.945312 4.527344 C 15.34375 4.527344 15.738281 4.546875 16.136719 4.59375 C 16.53125 4.636719 16.921875 4.707031 17.3125 4.796875 C 17.699219 4.886719 18.082031 5 18.453125 5.132812 C 18.828125 5.269531 19.195312 5.425781 19.550781 5.601562 C 19.90625 5.777344 20.25 5.976562 20.582031 6.191406 C 20.914062 6.410156 21.234375 6.644531 21.539062 6.898438 C 21.84375 7.152344 22.132812 7.421875 22.402344 7.710938 C 22.675781 7.996094 22.929688 8.296875 23.167969 8.617188 C 23.402344 8.933594 23.621094 9.261719 23.816406 9.601562 C 24.015625 9.945312 24.191406 10.296875 24.34375 10.660156 C 24.5 11.019531 24.632812 11.390625 24.746094 11.769531 C 24.855469 12.144531 24.945312 12.527344 25.007812 12.917969 C 25.074219 13.304688 25.117188 13.695312 25.136719 14.089844 C 25.15625 14.480469 25.152344 14.875 25.125 15.265625 C 25.097656 15.65625 25.042969 16.046875 24.972656 16.433594 C 24.898438 16.820312 24.800781 17.199219 24.679688 17.574219 C 24.5625 17.949219 24.417969 18.316406 24.257812 18.675781 C 24.09375 19.035156 23.910156 19.382812 23.707031 19.722656 C 23.5 20.058594 23.277344 20.382812 23.035156 20.695312 C 22.789062 21.007812 22.53125 21.300781 22.25 21.582031 C 21.972656 21.867188 21.679688 22.128906 21.367188 22.375 C 21.058594 22.625 20.734375 22.851562 20.398438 23.0625 C 20.058594 23.273438 19.710938 23.460938 19.351562 23.628906 C 18.992188 23.800781 18.625 23.949219 18.246094 24.074219 Z M 18.25 24.070312 "/>
</g>
</g>
</svg>
