<?xml version="1.0" encoding="UTF-8"?>
<svg xmlns="http://www.w3.org/2000/svg" xmlns:xlink="http://www.w3.org/1999/xlink" width="48pt" height="48pt" viewBox="0 0 48 48" version="1.2">
<defs>
<clipPath id="clip1">
  <path d="M 0.488281 0 L 47.507812 0 L 47.507812 47.019531 L 0.488281 47.019531 Z M 0.488281 0 "/>
</clipPath>
<clipPath id="clip2">
  <path d="M 24 3.9375 L 44 3.9375 L 44 42.671875 L 24 42.671875 Z M 24 3.9375 "/>
</clipPath>
<clipPath id="clip3">
  <path d="M 4 3.9375 L 25 3.9375 L 25 42.671875 L 4 42.671875 Z M 4 3.9375 "/>
</clipPath>
<clipPath id="clip4">
  <path d="M 13 20 L 35 20 L 35 34 L 13 34 Z M 13 20 "/>
</clipPath>
<clipPath id="clip5">
  <path d="M 34.53125 33.230469 L 13.226562 32.78125 L 13.492188 20.292969 L 34.792969 20.742188 Z M 34.53125 33.230469 "/>
</clipPath>
<clipPath id="clip6">
  <path d="M 34.53125 33.230469 L 13.226562 32.78125 L 13.492188 20.292969 L 34.792969 20.742188 Z M 34.53125 33.230469 "/>
</clipPath>
</defs>
<g id="surface1">
<g clip-path="url(#clip1)" clip-rule="nonzero">
<path style=" stroke:none;fill-rule:nonzero;fill:rgb(0%,0%,0%);fill-opacity:1;" d="M 24 0 C 11.035156 0 0.488281 10.546875 0.488281 23.511719 C 0.488281 36.472656 11.035156 47.019531 24 47.019531 C 36.964844 47.019531 47.511719 36.472656 47.511719 23.511719 C 47.511719 10.546875 36.964844 0 24 0 Z M 24 0 "/>
</g>
<g clip-path="url(#clip2)" clip-rule="nonzero">
<path style=" stroke:none;fill-rule:nonzero;fill:rgb(96.078491%,45.878601%,12.939453%);fill-opacity:1;" d="M 25.328125 42.660156 C 39.988281 33.628906 24.1875 29.160156 24.1875 21.03125 L 24.1875 3.933594 C 24.246094 3.957031 24.296875 3.992188 24.328125 4.0625 C 25.757812 7.355469 28.460938 9.824219 30.390625 12.8125 C 30.5 12.078125 30.949219 10.105469 31.105469 10.414062 C 33.113281 14.316406 35.515625 18.105469 35.800781 22.503906 C 36.582031 20.726562 37.695312 16.539062 37.828125 16.796875 C 39.019531 19.144531 40.234375 21.542969 40.984375 24.070312 C 41.699219 26.484375 41.734375 28.914062 41.839844 31.390625 C 42.527344 30.539062 43.714844 28.113281 43.792969 28.371094 C 45.195312 32.878906 38.125 42.660156 30.566406 42.660156 L 25.328125 42.660156 "/>
</g>
<g clip-path="url(#clip3)" clip-rule="nonzero">
<path style=" stroke:none;fill-rule:nonzero;fill:rgb(96.859741%,57.649231%,11.759949%);fill-opacity:1;" d="M 23.046875 42.660156 C 8.386719 33.628906 24.1875 29.160156 24.1875 21.03125 L 24.1875 3.933594 C 24.128906 3.957031 24.078125 3.992188 24.046875 4.0625 C 22.617188 7.355469 19.914062 9.824219 17.984375 12.8125 C 17.875 12.078125 17.425781 10.105469 17.265625 10.414062 C 15.261719 14.316406 12.859375 18.105469 12.570312 22.503906 C 11.789062 20.726562 10.679688 16.539062 10.546875 16.796875 C 9.351562 19.144531 8.140625 21.542969 7.390625 24.070312 C 6.671875 26.484375 6.640625 28.914062 6.535156 31.390625 C 5.84375 30.539062 4.660156 28.113281 4.582031 28.371094 C 3.179688 32.878906 10.25 42.660156 17.804688 42.660156 L 23.046875 42.660156 "/>
</g>
<g clip-path="url(#clip4)" clip-rule="nonzero">
<g clip-path="url(#clip5)" clip-rule="nonzero">
<g clip-path="url(#clip6)" clip-rule="nonzero">
<path style=" stroke:none;fill-rule:nonzero;fill:rgb(0%,0%,0%);fill-opacity:1;" d="M 13.445312 23.378906 L 13.449219 23.277344 C 13.449219 23.277344 13.511719 23.273438 13.628906 23.277344 C 13.742188 23.28125 13.914062 23.296875 14.125 23.359375 C 14.332031 23.417969 14.582031 23.523438 14.839844 23.683594 C 15.101562 23.839844 15.371094 24.054688 15.636719 24.308594 C 16.175781 24.820312 16.699219 25.503906 17.191406 26.265625 C 17.265625 26.378906 17.339844 26.496094 17.414062 26.617188 C 17.460938 26.691406 17.507812 26.769531 17.554688 26.847656 L 17.601562 26.921875 L 17.621094 26.957031 L 17.640625 26.984375 C 17.664062 27.015625 17.6875 27.050781 17.710938 27.074219 C 17.746094 27.117188 17.78125 27.148438 17.8125 27.167969 C 17.828125 27.179688 17.835938 27.183594 17.847656 27.191406 C 17.890625 27.214844 17.925781 27.222656 17.964844 27.222656 C 18.003906 27.226562 18.050781 27.222656 18.117188 27.214844 C 18.25 27.199219 18.4375 27.148438 18.652344 27.082031 C 18.785156 27.039062 18.933594 26.992188 19.089844 26.945312 C 19.015625 26.75 18.949219 26.546875 18.894531 26.332031 C 18.828125 26.066406 18.777344 25.785156 18.777344 25.488281 C 18.773438 25.195312 18.828125 24.875 18.980469 24.589844 C 19.03125 24.492188 19.097656 24.375 19.148438 24.273438 C 19.167969 24.230469 19.1875 24.183594 19.207031 24.140625 L 19.234375 24.070312 L 19.257812 23.996094 C 19.273438 23.941406 19.289062 23.894531 19.304688 23.84375 C 19.316406 23.792969 19.324219 23.742188 19.335938 23.6875 C 19.359375 23.589844 19.363281 23.484375 19.375 23.386719 C 19.386719 23.285156 19.382812 23.1875 19.386719 23.089844 C 19.378906 22.996094 19.378906 22.902344 19.371094 22.8125 C 19.351562 22.632812 19.328125 22.46875 19.292969 22.320312 C 19.261719 22.175781 19.226562 22.050781 19.195312 21.949219 C 19.164062 21.84375 19.136719 21.765625 19.117188 21.710938 C 19.09375 21.660156 19.082031 21.632812 19.082031 21.632812 L 19.171875 21.582031 C 19.171875 21.582031 19.191406 21.609375 19.222656 21.660156 C 19.253906 21.710938 19.300781 21.789062 19.351562 21.886719 C 19.402344 21.988281 19.460938 22.109375 19.519531 22.253906 C 19.582031 22.398438 19.640625 22.566406 19.691406 22.753906 C 19.722656 22.847656 19.738281 22.949219 19.765625 23.050781 C 19.78125 23.15625 19.800781 23.265625 19.8125 23.378906 C 19.820312 23.492188 19.835938 23.609375 19.828125 23.734375 C 19.828125 23.792969 19.828125 23.855469 19.824219 23.917969 C 19.820312 23.980469 19.8125 24.042969 19.804688 24.109375 L 19.792969 24.203125 L 19.773438 24.304688 C 19.753906 24.375 19.738281 24.441406 19.722656 24.511719 C 19.6875 24.636719 19.648438 24.738281 19.609375 24.867188 C 19.558594 25.035156 19.554688 25.222656 19.59375 25.425781 C 19.675781 25.828125 19.886719 26.242188 20.117188 26.609375 C 20.148438 26.664062 20.183594 26.71875 20.222656 26.773438 L 20.289062 26.773438 C 20.328125 26.773438 20.375 26.777344 20.417969 26.78125 L 20.480469 26.789062 L 20.511719 26.789062 L 20.550781 26.796875 C 20.601562 26.804688 20.652344 26.8125 20.703125 26.824219 L 20.804688 26.84375 L 20.847656 26.851562 L 20.867188 26.855469 L 20.921875 26.875 L 20.945312 26.882812 C 21.003906 26.902344 21.0625 26.925781 21.121094 26.949219 C 21.183594 26.976562 21.226562 27.003906 21.277344 27.03125 C 21.324219 27.058594 21.371094 27.089844 21.417969 27.121094 C 21.761719 27.367188 21.957031 27.621094 22.125 27.855469 C 22.449219 28.328125 22.652344 28.765625 22.828125 29.179688 C 22.871094 29.28125 22.914062 29.382812 22.953125 29.484375 C 22.953125 29.441406 22.949219 29.402344 22.945312 29.359375 C 22.925781 29.117188 22.878906 28.917969 22.726562 28.597656 C 22.65625 28.4375 22.570312 28.257812 22.484375 28.058594 C 22.398438 27.855469 22.3125 27.628906 22.261719 27.371094 C 22.253906 27.304688 22.242188 27.238281 22.234375 27.171875 C 22.226562 27.101562 22.222656 27.035156 22.222656 26.964844 C 22.222656 26.894531 22.222656 26.828125 22.230469 26.75 L 22.242188 26.644531 C 22.25 26.597656 22.257812 26.566406 22.265625 26.527344 C 22.332031 26.234375 22.480469 25.976562 22.648438 25.785156 C 22.722656 25.699219 22.800781 25.625 22.878906 25.558594 C 22.875 25.550781 22.875 25.542969 22.871094 25.535156 C 22.859375 25.480469 22.847656 25.425781 22.832031 25.371094 C 22.820312 25.316406 22.808594 25.261719 22.800781 25.203125 C 22.75 24.980469 22.722656 24.746094 22.691406 24.507812 C 22.679688 24.390625 22.671875 24.269531 22.660156 24.148438 C 22.648438 24.03125 22.648438 23.910156 22.644531 23.789062 C 22.628906 23.550781 22.644531 23.3125 22.648438 23.078125 C 22.652344 22.964844 22.65625 22.855469 22.660156 22.746094 C 22.660156 22.6875 22.660156 22.632812 22.664062 22.578125 C 22.664062 22.527344 22.660156 22.472656 22.660156 22.421875 C 22.65625 22.320312 22.660156 22.214844 22.652344 22.117188 C 22.640625 22.015625 22.632812 21.917969 22.625 21.820312 C 22.609375 21.726562 22.597656 21.636719 22.582031 21.546875 C 22.566406 21.460938 22.542969 21.378906 22.523438 21.296875 C 22.5 21.21875 22.472656 21.148438 22.445312 21.078125 C 22.429688 21.046875 22.414062 21.011719 22.398438 20.984375 C 22.382812 20.949219 22.367188 20.921875 22.347656 20.894531 C 22.28125 20.78125 22.195312 20.710938 22.125 20.660156 C 22.046875 20.613281 21.976562 20.597656 21.929688 20.59375 C 21.878906 20.585938 21.859375 20.589844 21.859375 20.589844 L 21.832031 20.492188 C 21.832031 20.492188 21.84375 20.488281 21.859375 20.484375 C 21.875 20.480469 21.898438 20.480469 21.929688 20.476562 C 21.992188 20.476562 22.085938 20.480469 22.191406 20.527344 C 22.296875 20.574219 22.417969 20.652344 22.515625 20.769531 C 22.542969 20.796875 22.566406 20.828125 22.589844 20.863281 C 22.613281 20.894531 22.636719 20.929688 22.664062 20.964844 C 22.703125 21.039062 22.746094 21.117188 22.789062 21.199219 C 22.824219 21.28125 22.863281 21.371094 22.898438 21.460938 C 22.925781 21.554688 22.957031 21.652344 22.988281 21.75 C 23.015625 21.851562 23.039062 21.953125 23.066406 22.058594 C 23.089844 22.164062 23.105469 22.273438 23.128906 22.386719 C 23.136719 22.441406 23.148438 22.5 23.15625 22.554688 C 23.164062 22.609375 23.171875 22.664062 23.179688 22.71875 C 23.191406 22.832031 23.207031 22.945312 23.222656 23.0625 C 23.253906 23.28125 23.273438 23.503906 23.320312 23.722656 C 23.34375 23.832031 23.359375 23.941406 23.386719 24.050781 C 23.414062 24.15625 23.441406 24.261719 23.464844 24.367188 C 23.527344 24.578125 23.585938 24.78125 23.660156 24.972656 C 23.675781 25.019531 23.695312 25.066406 23.710938 25.113281 C 23.726562 25.105469 23.742188 25.101562 23.757812 25.097656 C 23.804688 25.082031 23.851562 25.070312 23.898438 25.058594 L 23.902344 25.058594 C 23.902344 25.058594 23.898438 25.058594 23.898438 25.0625 L 23.902344 25.058594 L 23.914062 25.058594 L 23.945312 25.050781 C 23.96875 25.042969 23.96875 25.042969 23.980469 25.039062 C 24.019531 25.03125 24.078125 25.007812 24.125 24.984375 C 24.230469 24.933594 24.332031 24.867188 24.429688 24.789062 C 24.621094 24.632812 24.789062 24.449219 24.9375 24.28125 C 25.078125 24.113281 25.203125 23.960938 25.304688 23.828125 C 25.507812 23.566406 25.625 23.417969 25.625 23.417969 L 25.703125 23.457031 C 25.703125 23.457031 25.691406 23.503906 25.667969 23.589844 C 25.644531 23.675781 25.609375 23.800781 25.558594 23.957031 C 25.507812 24.117188 25.445312 24.308594 25.351562 24.53125 C 25.261719 24.75 25.148438 24.996094 24.96875 25.257812 C 24.878906 25.390625 24.769531 25.527344 24.625 25.652344 C 24.554688 25.71875 24.480469 25.777344 24.378906 25.839844 L 24.308594 25.882812 L 24.28125 25.898438 L 24.269531 25.90625 C 24.269531 25.90625 24.261719 25.910156 24.261719 25.910156 C 24.257812 25.910156 24.253906 25.914062 24.242188 25.917969 C 24.214844 25.933594 24.1875 25.953125 24.164062 25.972656 C 24.15625 25.980469 24.144531 25.984375 24.140625 25.992188 C 23.9375 26.136719 23.761719 26.335938 23.691406 26.507812 C 23.65625 26.601562 23.65625 26.679688 23.667969 26.738281 C 23.667969 26.742188 23.667969 26.757812 23.671875 26.753906 L 23.675781 26.753906 C 23.675781 26.753906 23.679688 26.773438 23.679688 26.78125 L 23.699219 26.839844 C 23.703125 26.859375 23.714844 26.882812 23.722656 26.902344 L 23.753906 26.96875 C 23.804688 27.0625 23.871094 27.175781 23.960938 27.300781 C 23.980469 27.328125 24 27.355469 24.019531 27.382812 C 24.09375 27.488281 24.179688 27.601562 24.269531 27.730469 C 24.328125 27.8125 24.382812 27.894531 24.445312 27.996094 L 24.539062 28.152344 L 24.574219 28.214844 L 24.621094 28.3125 C 24.730469 28.539062 24.816406 28.773438 24.871094 29.015625 C 24.910156 29.179688 24.9375 29.34375 24.953125 29.507812 C 24.996094 29.417969 25.039062 29.324219 25.082031 29.226562 C 25.277344 28.820312 25.496094 28.394531 25.839844 27.933594 C 26.019531 27.707031 26.226562 27.460938 26.578125 27.230469 C 26.625 27.199219 26.675781 27.171875 26.726562 27.148438 C 26.777344 27.121094 26.820312 27.09375 26.882812 27.074219 C 26.941406 27.050781 27.003906 27.03125 27.0625 27.011719 L 27.085938 27.003906 L 27.140625 26.988281 L 27.160156 26.984375 L 27.203125 26.976562 L 27.304688 26.960938 C 27.355469 26.953125 27.410156 26.949219 27.460938 26.941406 L 27.5 26.9375 L 27.53125 26.9375 L 27.59375 26.933594 C 27.636719 26.929688 27.679688 26.929688 27.722656 26.929688 L 27.789062 26.929688 C 27.828125 26.878906 27.863281 26.828125 27.902344 26.773438 C 28.144531 26.417969 28.375 26.011719 28.472656 25.613281 C 28.519531 25.414062 28.527344 25.222656 28.484375 25.054688 C 28.445312 24.925781 28.414062 24.820312 28.382812 24.695312 C 28.367188 24.625 28.355469 24.554688 28.34375 24.488281 L 28.324219 24.382812 L 28.316406 24.285156 C 28.3125 24.222656 28.308594 24.160156 28.304688 24.097656 C 28.304688 24.035156 28.308594 23.972656 28.308594 23.910156 C 28.308594 23.789062 28.328125 23.671875 28.339844 23.558594 C 28.355469 23.445312 28.382812 23.335938 28.402344 23.234375 C 28.433594 23.132812 28.453125 23.03125 28.488281 22.9375 C 28.546875 22.753906 28.613281 22.589844 28.679688 22.445312 C 28.746094 22.304688 28.8125 22.183594 28.867188 22.085938 C 28.921875 21.992188 28.96875 21.917969 29 21.867188 C 29.035156 21.816406 29.054688 21.789062 29.054688 21.789062 L 29.144531 21.84375 C 29.144531 21.84375 29.128906 21.871094 29.105469 21.921875 C 29.085938 21.976562 29.050781 22.054688 29.015625 22.15625 C 28.980469 22.257812 28.941406 22.382812 28.902344 22.523438 C 28.863281 22.667969 28.832031 22.832031 28.808594 23.011719 C 28.792969 23.101562 28.789062 23.195312 28.78125 23.289062 C 28.777344 23.386719 28.769531 23.484375 28.777344 23.585938 C 28.785156 23.683594 28.785156 23.789062 28.804688 23.890625 C 28.8125 23.941406 28.820312 23.992188 28.828125 24.042969 C 28.84375 24.09375 28.855469 24.144531 28.867188 24.199219 L 28.886719 24.273438 L 28.914062 24.34375 C 28.929688 24.390625 28.949219 24.4375 28.964844 24.484375 C 29.011719 24.585938 29.074219 24.703125 29.121094 24.804688 C 29.261719 25.09375 29.304688 25.417969 29.289062 25.710938 C 29.273438 26.007812 29.210938 26.285156 29.132812 26.546875 C 29.070312 26.761719 28.996094 26.960938 28.914062 27.152344 C 29.25 27.265625 29.804688 27.601562 30.152344 27.417969 C 30.257812 27.359375 30.335938 27.261719 30.40625 27.164062 C 30.980469 26.402344 31.496094 25.589844 32.179688 24.917969 C 32.859375 24.246094 33.746094 23.71875 34.710938 23.695312 C 34.695312 23.792969 34.574219 23.835938 34.476562 23.859375 C 33.820312 24.042969 33.269531 24.492188 32.847656 25.019531 C 32.429688 25.546875 32.125 26.15625 31.828125 26.757812 C 32.257812 26.542969 32.71875 26.324219 33.195312 26.378906 C 33.878906 26.457031 34.371094 27.085938 34.59375 27.726562 C 34.527344 27.765625 34.453125 27.695312 34.410156 27.632812 C 34.109375 27.214844 33.691406 26.761719 33.171875 26.820312 C 32.871094 26.855469 32.621094 27.058594 32.367188 27.222656 C 32.164062 27.355469 31.945312 27.464844 31.714844 27.550781 C 31.625 27.585938 31.53125 27.617188 31.453125 27.675781 C 31.351562 27.757812 31.292969 27.882812 31.226562 27.992188 C 30.976562 28.40625 30.535156 28.699219 30.054688 28.777344 C 29.425781 28.875 28.792969 28.617188 28.15625 28.597656 C 27.421875 28.574219 27.289062 29.457031 27.152344 29.980469 C 27.058594 30.328125 26.992188 30.675781 26.933594 31 C 26.867188 31.386719 26.796875 32.761719 26.757812 33.066406 L 20.992188 32.945312 C 20.96875 32.640625 20.957031 31.261719 20.90625 30.871094 C 20.847656 30.425781 20.757812 29.980469 20.640625 29.546875 C 20.542969 29.195312 20.515625 28.640625 20.140625 28.457031 C 19.898438 28.339844 19.527344 28.425781 19.265625 28.441406 C 18.6875 28.472656 18.101562 28.609375 17.542969 28.414062 C 17.359375 28.339844 17.183594 28.226562 17.054688 28.097656 C 16.917969 27.96875 16.816406 27.824219 16.742188 27.691406 C 16.699219 27.621094 16.671875 27.550781 16.640625 27.484375 L 16.617188 27.433594 L 16.605469 27.394531 C 16.605469 27.394531 16.59375 27.367188 16.59375 27.363281 C 16.433594 27.308594 16.269531 27.234375 16.105469 27.152344 C 15.960938 27.078125 15.820312 26.996094 15.679688 26.902344 C 15.609375 26.859375 15.542969 26.8125 15.476562 26.761719 L 15.289062 26.621094 C 15.273438 26.613281 15.253906 26.597656 15.246094 26.589844 L 15.207031 26.566406 C 15.1875 26.550781 15.160156 26.535156 15.132812 26.523438 C 15.101562 26.507812 15.074219 26.496094 15.046875 26.484375 C 15.019531 26.472656 14.992188 26.460938 14.960938 26.453125 C 14.84375 26.421875 14.726562 26.410156 14.605469 26.429688 C 14.363281 26.46875 14.140625 26.609375 13.972656 26.753906 C 13.804688 26.898438 13.679688 27.042969 13.601562 27.148438 C 13.558594 27.203125 13.527344 27.246094 13.511719 27.277344 C 13.492188 27.304688 13.480469 27.320312 13.480469 27.320312 L 13.386719 27.277344 C 13.386719 27.277344 13.394531 27.257812 13.410156 27.222656 C 13.421875 27.1875 13.445312 27.136719 13.476562 27.078125 C 13.542969 26.953125 13.636719 26.777344 13.792969 26.582031 C 13.871094 26.488281 13.964844 26.386719 14.082031 26.292969 C 14.195312 26.199219 14.332031 26.113281 14.496094 26.050781 C 14.660156 25.992188 14.851562 25.96875 15.042969 25.984375 C 15.089844 25.988281 15.136719 25.996094 15.183594 26.003906 C 15.230469 26.011719 15.277344 26.023438 15.320312 26.039062 C 15.367188 26.050781 15.410156 26.066406 15.457031 26.085938 L 15.527344 26.117188 C 15.550781 26.125 15.566406 26.132812 15.585938 26.144531 C 15.65625 26.175781 15.726562 26.210938 15.796875 26.246094 C 15.863281 26.28125 15.929688 26.3125 15.996094 26.335938 C 16.066406 26.367188 16.140625 26.394531 16.210938 26.421875 C 15.914062 25.742188 15.589844 25.132812 15.238281 24.652344 C 15.039062 24.378906 14.832031 24.144531 14.625 23.964844 C 14.421875 23.78125 14.222656 23.648438 14.042969 23.5625 C 13.867188 23.472656 13.714844 23.433594 13.609375 23.40625 C 13.503906 23.386719 13.445312 23.378906 13.445312 23.378906 "/>
</g>
</g>
</g>
</g>
</svg>
