<?xml version="1.0" encoding="UTF-8"?>
<svg xmlns="http://www.w3.org/2000/svg" xmlns:xlink="http://www.w3.org/1999/xlink" width="30pt" height="30.000001pt" viewBox="0 0 30 30.000001" version="1.2">
<defs>
<clipPath id="clip1">
  <path d="M 0.484375 0 L 29.515625 0 L 29.515625 29.03125 L 0.484375 29.03125 Z M 0.484375 0 "/>
</clipPath>
</defs>
<g id="surface1">
<g clip-path="url(#clip1)" clip-rule="nonzero">
<path style=" stroke:none;fill-rule:nonzero;fill:rgb(9.799194%,9.799194%,9.799194%);fill-opacity:1;" d="M 15 0 C 6.984375 0 0.484375 6.5 0.484375 14.515625 C 0.484375 22.53125 6.984375 29.03125 15 29.03125 C 23.015625 29.03125 29.515625 22.53125 29.515625 14.515625 C 29.515625 6.5 23.015625 0 15 0 Z M 15 0 "/>
</g>
<path style=" stroke:none;fill-rule:nonzero;fill:rgb(100%,100%,100%);fill-opacity:1;" d="M 22.0625 8.351562 L 19.46875 21.421875 C 19.46875 21.421875 19.109375 22.328125 18.109375 21.894531 L 12.128906 17.308594 L 9.953125 16.253906 L 6.289062 15.023438 C 6.289062 15.023438 5.726562 14.824219 5.671875 14.386719 C 5.617188 13.953125 6.308594 13.714844 6.308594 13.714844 L 20.867188 8.007812 C 20.867188 8.007812 22.0625 7.480469 22.0625 8.351562 "/>
<path style=" stroke:none;fill-rule:nonzero;fill:rgb(85.099792%,85.099792%,85.099792%);fill-opacity:1;" d="M 11.667969 21.273438 C 11.667969 21.273438 11.492188 21.257812 11.277344 20.570312 C 11.058594 19.882812 9.953125 16.253906 9.953125 16.253906 L 18.746094 10.671875 C 18.746094 10.671875 19.253906 10.363281 19.234375 10.671875 C 19.234375 10.671875 19.324219 10.726562 19.054688 10.980469 C 18.78125 11.234375 12.144531 17.199219 12.144531 17.199219 "/>
<path style=" stroke:none;fill-rule:nonzero;fill:rgb(65.098572%,65.098572%,65.098572%);fill-opacity:1;" d="M 14.421875 19.066406 L 12.054688 21.222656 C 12.054688 21.222656 11.871094 21.363281 11.667969 21.273438 L 12.121094 17.265625 "/>
</g>
</svg>
