<?xml version="1.0" encoding="UTF-8"?>
<svg xmlns="http://www.w3.org/2000/svg" xmlns:xlink="http://www.w3.org/1999/xlink" width="48pt" height="48pt" viewBox="0 0 48 48" version="1.2">
<defs>
<clipPath id="clip1">
  <path d="M 2.253906 1.984375 L 45.53125 1.984375 L 45.53125 45.261719 L 2.253906 45.261719 Z M 2.253906 1.984375 "/>
</clipPath>
</defs>
<g id="surface1">
<g clip-path="url(#clip1)" clip-rule="nonzero">
<path style=" stroke:none;fill-rule:nonzero;fill:rgb(85.099792%,85.099792%,85.099792%);fill-opacity:1;" d="M 23.890625 45.261719 C 11.992188 45.261719 2.253906 35.523438 2.253906 23.621094 C 2.253906 11.722656 11.992188 1.984375 23.890625 1.984375 C 35.792969 1.984375 45.53125 11.722656 45.53125 23.621094 C 45.53125 35.523438 35.792969 45.261719 23.890625 45.261719 Z M 23.890625 3.425781 C 12.785156 3.425781 3.695312 12.515625 3.695312 23.621094 C 3.695312 34.730469 12.785156 43.820312 23.890625 43.820312 C 35 43.820312 44.089844 34.730469 44.089844 23.621094 C 44.089844 12.515625 35 3.425781 23.890625 3.425781 Z M 23.890625 3.425781 "/>
</g>
<path style=" stroke:none;fill-rule:nonzero;fill:rgb(85.099792%,85.099792%,85.099792%);fill-opacity:1;" d="M 31.828125 22.902344 C 31.394531 22.902344 31.105469 22.613281 31.105469 22.179688 C 31.105469 21.746094 31.394531 21.457031 31.828125 21.457031 C 33.847656 21.457031 35.433594 19.871094 35.433594 17.851562 C 35.433594 15.832031 33.847656 14.246094 31.828125 14.246094 C 31.609375 14.246094 31.320312 14.246094 31.105469 14.316406 C 30.746094 14.390625 30.3125 14.171875 30.238281 13.742188 C 30.167969 13.378906 30.382812 12.949219 30.816406 12.875 C 31.175781 12.804688 31.464844 12.804688 31.828125 12.804688 C 34.640625 12.804688 36.875 15.039062 36.875 17.851562 C 36.875 20.664062 34.640625 22.902344 31.828125 22.902344 Z M 31.828125 22.902344 "/>
<path style=" stroke:none;fill-rule:nonzero;fill:rgb(85.099792%,85.099792%,85.099792%);fill-opacity:1;" d="M 39.039062 31.558594 L 34.710938 31.558594 C 34.277344 31.558594 33.992188 31.269531 33.992188 30.835938 C 33.992188 30.402344 34.277344 30.113281 34.710938 30.113281 L 37.523438 30.113281 C 37.164062 27.300781 34.710938 25.066406 31.828125 25.066406 C 31.394531 25.066406 30.960938 25.136719 30.527344 25.210938 C 30.167969 25.28125 29.734375 25.066406 29.664062 24.703125 C 29.589844 24.34375 29.808594 23.910156 30.167969 23.839844 C 30.671875 23.695312 31.25 23.621094 31.828125 23.621094 C 35.792969 23.621094 39.039062 26.867188 39.039062 30.835938 Z M 39.039062 31.558594 "/>
<path style=" stroke:none;fill-rule:nonzero;fill:rgb(85.099792%,85.099792%,85.099792%);fill-opacity:1;" d="M 15.957031 22.902344 C 13.144531 22.902344 10.910156 20.664062 10.910156 17.851562 C 10.910156 15.039062 13.144531 12.804688 15.957031 12.804688 C 16.246094 12.804688 16.535156 12.804688 16.824219 12.875 C 17.183594 12.949219 17.472656 13.308594 17.402344 13.742188 C 17.328125 14.101562 16.96875 14.390625 16.535156 14.316406 C 16.390625 14.246094 16.175781 14.246094 15.957031 14.246094 C 13.9375 14.246094 12.351562 15.832031 12.351562 17.851562 C 12.351562 19.871094 13.9375 21.457031 15.957031 21.457031 C 16.390625 21.457031 16.679688 21.746094 16.679688 22.179688 C 16.679688 22.613281 16.390625 22.902344 15.957031 22.902344 Z M 15.957031 22.902344 "/>
<path style=" stroke:none;fill-rule:nonzero;fill:rgb(85.099792%,85.099792%,85.099792%);fill-opacity:1;" d="M 13 31.558594 L 8.746094 31.558594 L 8.746094 30.835938 C 8.746094 26.867188 11.992188 23.621094 15.957031 23.621094 C 16.460938 23.621094 16.96875 23.695312 17.472656 23.765625 C 17.832031 23.839844 18.121094 24.199219 18.050781 24.632812 C 17.976562 24.992188 17.617188 25.28125 17.183594 25.210938 C 16.75 25.136719 16.390625 25.066406 15.957031 25.066406 C 13 25.066406 10.621094 27.300781 10.257812 30.113281 L 13 30.113281 C 13.433594 30.113281 13.722656 30.402344 13.722656 30.835938 C 13.722656 31.269531 13.359375 31.558594 13 31.558594 Z M 13 31.558594 "/>
<path style=" stroke:none;fill-rule:nonzero;fill:rgb(85.099792%,85.099792%,85.099792%);fill-opacity:1;" d="M 23.890625 25.066406 C 20.71875 25.066406 18.121094 22.46875 18.121094 19.296875 C 18.121094 16.121094 20.71875 13.523438 23.890625 13.523438 C 27.066406 13.523438 29.664062 16.121094 29.664062 19.296875 C 29.664062 22.46875 27.066406 25.066406 23.890625 25.066406 Z M 23.890625 14.96875 C 21.511719 14.96875 19.5625 16.914062 19.5625 19.296875 C 19.5625 21.675781 21.511719 23.621094 23.890625 23.621094 C 26.273438 23.621094 28.21875 21.675781 28.21875 19.296875 C 28.21875 16.914062 26.273438 14.96875 23.890625 14.96875 Z M 23.890625 14.96875 "/>
<path style=" stroke:none;fill-rule:nonzero;fill:rgb(85.099792%,85.099792%,85.099792%);fill-opacity:1;" d="M 32.546875 35.164062 L 19.5625 35.164062 C 19.132812 35.164062 18.84375 34.875 18.84375 34.441406 C 18.84375 34.007812 19.132812 33.722656 19.5625 33.722656 L 31.105469 33.722656 C 30.746094 30.113281 27.644531 27.230469 23.890625 27.230469 C 19.925781 27.230469 16.679688 30.476562 16.679688 34.441406 C 16.679688 34.875 16.390625 35.164062 15.957031 35.164062 C 15.523438 35.164062 15.238281 34.875 15.238281 34.441406 C 15.238281 29.683594 19.132812 25.785156 23.890625 25.785156 C 28.652344 25.785156 32.546875 29.683594 32.546875 34.441406 Z M 32.546875 35.164062 "/>
</g>
</svg>
