<?xml version="1.0" encoding="UTF-8"?>
<svg xmlns="http://www.w3.org/2000/svg" xmlns:xlink="http://www.w3.org/1999/xlink" width="48pt" height="48pt" viewBox="0 0 48 48" version="1.2">
<defs>
<clipPath id="clip1">
  <path d="M 3.429688 11 L 44.570312 11 L 44.570312 37 L 3.429688 37 Z M 3.429688 11 "/>
</clipPath>
<clipPath id="clip2">
  <path d="M 3.429688 11 L 44.570312 11 L 44.570312 37 L 3.429688 37 Z M 3.429688 11 "/>
</clipPath>
</defs>
<g id="surface1">
<path style=" stroke:none;fill-rule:nonzero;fill:rgb(2.749634%,58.428955%,100%);fill-opacity:1;" d="M 24 46.847656 C 23.761719 46.847656 23.53125 46.800781 23.3125 46.710938 C 23.09375 46.621094 22.898438 46.488281 22.730469 46.320312 C 22.5625 46.152344 22.433594 45.957031 22.339844 45.738281 C 22.25 45.519531 22.203125 45.289062 22.203125 45.050781 L 22.203125 2.066406 C 22.203125 1.828125 22.25 1.597656 22.339844 1.378906 C 22.433594 1.160156 22.5625 0.964844 22.730469 0.796875 C 22.898438 0.628906 23.09375 0.5 23.3125 0.40625 C 23.53125 0.316406 23.761719 0.269531 24 0.269531 C 24.238281 0.269531 24.46875 0.316406 24.6875 0.40625 C 24.90625 0.5 25.101562 0.628906 25.269531 0.796875 C 25.4375 0.964844 25.566406 1.160156 25.660156 1.378906 C 25.75 1.597656 25.796875 1.828125 25.796875 2.066406 L 25.796875 45.050781 C 25.796875 45.289062 25.75 45.519531 25.660156 45.738281 C 25.566406 45.957031 25.4375 46.152344 25.269531 46.320312 C 25.101562 46.488281 24.90625 46.621094 24.6875 46.710938 C 24.46875 46.800781 24.238281 46.847656 24 46.847656 Z M 24 46.847656 "/>
<path style=" stroke:none;fill-rule:nonzero;fill:rgb(2.749634%,58.428955%,100%);fill-opacity:1;" d="M 24 10.324219 C 23.628906 10.339844 23.304688 10.222656 23.03125 9.972656 L 19.023438 5.898438 C 18.894531 5.769531 18.792969 5.621094 18.726562 5.453125 C 18.65625 5.285156 18.621094 5.109375 18.621094 4.929688 C 18.621094 4.746094 18.65625 4.570312 18.726562 4.402344 C 18.792969 4.234375 18.894531 4.085938 19.023438 3.957031 C 19.152344 3.828125 19.300781 3.730469 19.46875 3.660156 C 19.636719 3.589844 19.808594 3.554688 19.992188 3.554688 C 20.175781 3.554688 20.347656 3.589844 20.519531 3.660156 C 20.6875 3.730469 20.835938 3.828125 20.960938 3.957031 L 24 7.0625 L 27.074219 3.988281 C 27.203125 3.859375 27.351562 3.757812 27.519531 3.6875 C 27.6875 3.617188 27.863281 3.585938 28.046875 3.585938 C 28.230469 3.585938 28.402344 3.617188 28.570312 3.6875 C 28.738281 3.757812 28.890625 3.855469 29.015625 3.984375 C 29.144531 4.113281 29.246094 4.261719 29.316406 4.429688 C 29.382812 4.601562 29.417969 4.773438 29.417969 4.957031 C 29.417969 5.140625 29.382812 5.3125 29.316406 5.480469 C 29.246094 5.652344 29.144531 5.800781 29.015625 5.925781 L 24.96875 9.972656 C 24.695312 10.222656 24.371094 10.339844 24 10.324219 Z M 24 10.324219 "/>
<path style=" stroke:none;fill-rule:nonzero;fill:rgb(2.749634%,58.428955%,100%);fill-opacity:1;" d="M 24 16.175781 C 23.621094 16.1875 23.296875 16.0625 23.03125 15.796875 L 19.003906 11.769531 C 18.878906 11.640625 18.78125 11.492188 18.714844 11.324219 C 18.648438 11.160156 18.617188 10.984375 18.617188 10.804688 C 18.621094 10.625 18.65625 10.453125 18.726562 10.289062 C 18.796875 10.125 18.898438 9.976562 19.027344 9.851562 C 19.15625 9.726562 19.304688 9.628906 19.46875 9.5625 C 19.636719 9.496094 19.808594 9.464844 19.988281 9.46875 C 20.167969 9.46875 20.34375 9.507812 20.507812 9.578125 C 20.671875 9.648438 20.816406 9.75 20.945312 9.875 L 24 12.933594 L 27.074219 9.855469 C 27.203125 9.730469 27.347656 9.628906 27.511719 9.558594 C 27.675781 9.488281 27.847656 9.449219 28.027344 9.449219 C 28.207031 9.445312 28.382812 9.476562 28.550781 9.546875 C 28.714844 9.613281 28.863281 9.707031 28.992188 9.832031 C 29.121094 9.957031 29.222656 10.105469 29.292969 10.269531 C 29.363281 10.433594 29.398438 10.605469 29.402344 10.785156 C 29.402344 10.964844 29.371094 11.140625 29.304688 11.304688 C 29.238281 11.472656 29.140625 11.621094 29.015625 11.75 L 24.96875 15.796875 C 24.703125 16.0625 24.378906 16.1875 24 16.175781 Z M 24 16.175781 "/>
<path style=" stroke:none;fill-rule:nonzero;fill:rgb(2.749634%,58.428955%,100%);fill-opacity:1;" d="M 28.027344 43.519531 C 27.648438 43.527344 27.324219 43.398438 27.054688 43.128906 L 24 40.054688 L 20.925781 43.128906 C 20.796875 43.257812 20.648438 43.359375 20.480469 43.429688 C 20.3125 43.496094 20.136719 43.53125 19.953125 43.53125 C 19.773438 43.53125 19.597656 43.496094 19.429688 43.429688 C 19.261719 43.359375 19.113281 43.257812 18.984375 43.128906 C 18.855469 43.003906 18.753906 42.855469 18.6875 42.683594 C 18.617188 42.515625 18.582031 42.34375 18.582031 42.160156 C 18.582031 41.976562 18.617188 41.804688 18.6875 41.636719 C 18.753906 41.46875 18.855469 41.320312 18.984375 41.191406 L 23.03125 37.203125 C 23.15625 37.070312 23.304688 36.96875 23.472656 36.898438 C 23.640625 36.824219 23.816406 36.789062 24 36.789062 C 24.183594 36.789062 24.359375 36.824219 24.527344 36.898438 C 24.695312 36.96875 24.84375 37.070312 24.96875 37.203125 L 28.996094 41.230469 C 29.191406 41.421875 29.316406 41.652344 29.367188 41.921875 C 29.421875 42.191406 29.394531 42.449219 29.289062 42.703125 C 29.179688 42.953125 29.011719 43.15625 28.78125 43.304688 C 28.550781 43.453125 28.300781 43.523438 28.027344 43.519531 Z M 28.027344 43.519531 "/>
<path style=" stroke:none;fill-rule:nonzero;fill:rgb(2.749634%,58.428955%,100%);fill-opacity:1;" d="M 28.027344 37.667969 C 27.648438 37.671875 27.324219 37.539062 27.054688 37.269531 L 24 34.234375 L 20.925781 37.308594 C 20.796875 37.4375 20.648438 37.535156 20.480469 37.605469 C 20.3125 37.675781 20.136719 37.710938 19.953125 37.710938 C 19.769531 37.710938 19.597656 37.675781 19.429688 37.605469 C 19.257812 37.539062 19.109375 37.4375 18.984375 37.308594 C 18.855469 37.179688 18.753906 37.03125 18.683594 36.863281 C 18.617188 36.695312 18.582031 36.519531 18.582031 36.339844 C 18.582031 36.15625 18.617188 35.980469 18.683594 35.8125 C 18.753906 35.644531 18.855469 35.496094 18.984375 35.367188 L 23.03125 31.320312 C 23.15625 31.191406 23.304688 31.089844 23.472656 31.015625 C 23.640625 30.945312 23.816406 30.910156 24 30.910156 C 24.183594 30.910156 24.359375 30.945312 24.527344 31.015625 C 24.695312 31.089844 24.84375 31.191406 24.96875 31.320312 L 28.996094 35.347656 C 29.191406 35.542969 29.3125 35.773438 29.363281 36.042969 C 29.417969 36.3125 29.390625 36.570312 29.285156 36.824219 C 29.175781 37.074219 29.007812 37.277344 28.78125 37.425781 C 28.550781 37.578125 28.300781 37.652344 28.027344 37.648438 Z M 28.027344 37.667969 "/>
<g clip-path="url(#clip1)" clip-rule="nonzero">
<path style=" stroke:none;fill-rule:nonzero;fill:rgb(2.749634%,58.428955%,100%);fill-opacity:1;" d="M 42.609375 36.09375 C 42.292969 36.09375 41.996094 36.015625 41.71875 35.863281 L 4.484375 14.359375 C 4.292969 14.234375 4.128906 14.078125 3.992188 13.890625 C 3.859375 13.703125 3.765625 13.496094 3.710938 13.273438 C 3.65625 13.046875 3.644531 12.820312 3.675781 12.59375 C 3.710938 12.363281 3.785156 12.148438 3.898438 11.949219 C 4.015625 11.75 4.164062 11.578125 4.34375 11.433594 C 4.527344 11.292969 4.730469 11.1875 4.949219 11.125 C 5.171875 11.058594 5.398438 11.039062 5.628906 11.0625 C 5.859375 11.082031 6.078125 11.148438 6.28125 11.253906 L 43.515625 32.757812 C 43.867188 32.957031 44.125 33.246094 44.28125 33.621094 C 44.4375 34 44.460938 34.382812 44.355469 34.777344 C 44.25 35.167969 44.035156 35.488281 43.710938 35.734375 C 43.382812 35.980469 43.019531 36.101562 42.609375 36.09375 Z M 42.609375 36.09375 "/>
</g>
<path style=" stroke:none;fill-rule:nonzero;fill:rgb(2.749634%,58.428955%,100%);fill-opacity:1;" d="M 5.863281 19.085938 C 5.527344 19.082031 5.234375 18.964844 4.984375 18.738281 C 4.734375 18.511719 4.589844 18.234375 4.550781 17.898438 C 4.515625 17.5625 4.589844 17.257812 4.785156 16.980469 C 4.976562 16.703125 5.234375 16.527344 5.5625 16.445312 L 9.765625 15.320312 L 8.640625 11.109375 C 8.59375 10.9375 8.582031 10.761719 8.605469 10.585938 C 8.628906 10.410156 8.6875 10.246094 8.777344 10.09375 C 8.863281 9.9375 8.980469 9.808594 9.121094 9.699219 C 9.261719 9.59375 9.417969 9.515625 9.589844 9.46875 C 9.761719 9.425781 9.9375 9.414062 10.113281 9.4375 C 10.289062 9.460938 10.453125 9.515625 10.605469 9.605469 C 10.761719 9.695312 10.890625 9.808594 11 9.949219 C 11.109375 10.09375 11.183594 10.25 11.230469 10.421875 L 12.707031 15.921875 C 12.753906 16.09375 12.761719 16.269531 12.738281 16.449219 C 12.714844 16.625 12.65625 16.792969 12.566406 16.945312 C 12.476562 17.101562 12.355469 17.230469 12.210938 17.339844 C 12.070312 17.445312 11.910156 17.519531 11.734375 17.5625 L 6.234375 19.035156 C 6.113281 19.070312 5.988281 19.085938 5.863281 19.085938 Z M 5.863281 19.085938 "/>
<path style=" stroke:none;fill-rule:nonzero;fill:rgb(2.749634%,58.428955%,100%);fill-opacity:1;" d="M 10.9375 22.015625 C 10.601562 22.011719 10.308594 21.902344 10.054688 21.679688 C 9.804688 21.457031 9.65625 21.175781 9.609375 20.84375 C 9.566406 20.507812 9.636719 20.203125 9.824219 19.921875 C 10.011719 19.640625 10.265625 19.457031 10.589844 19.367188 L 14.792969 18.242188 L 13.664062 14.039062 C 13.628906 13.710938 13.707031 13.40625 13.890625 13.132812 C 14.078125 12.859375 14.332031 12.679688 14.652344 12.589844 C 14.972656 12.503906 15.285156 12.53125 15.582031 12.671875 C 15.882812 12.816406 16.101562 13.039062 16.238281 13.339844 L 17.710938 18.84375 C 17.804688 19.203125 17.757812 19.546875 17.578125 19.871094 C 17.390625 20.191406 17.117188 20.398438 16.761719 20.492188 L 11.289062 21.96875 C 11.175781 21.996094 11.058594 22.015625 10.9375 22.015625 Z M 10.9375 22.015625 "/>
<path style=" stroke:none;fill-rule:nonzero;fill:rgb(2.749634%,58.428955%,100%);fill-opacity:1;" d="M 38.109375 37.695312 C 37.808594 37.699219 37.539062 37.609375 37.296875 37.429688 C 37.054688 37.25 36.894531 37.015625 36.808594 36.726562 L 35.332031 31.222656 C 35.289062 31.050781 35.28125 30.875 35.304688 30.699219 C 35.332031 30.519531 35.386719 30.355469 35.480469 30.199219 C 35.570312 30.046875 35.6875 29.914062 35.828125 29.804688 C 35.972656 29.699219 36.128906 29.621094 36.304688 29.574219 L 41.804688 28.101562 C 41.980469 28.042969 42.164062 28.019531 42.347656 28.035156 C 42.535156 28.050781 42.707031 28.101562 42.871094 28.191406 C 43.035156 28.277344 43.175781 28.394531 43.289062 28.542969 C 43.40625 28.6875 43.488281 28.851562 43.535156 29.03125 C 43.582031 29.207031 43.59375 29.390625 43.566406 29.574219 C 43.539062 29.757812 43.480469 29.929688 43.382812 30.085938 C 43.285156 30.246094 43.160156 30.378906 43.007812 30.484375 C 42.855469 30.589844 42.6875 30.664062 42.503906 30.699219 L 38.285156 31.808594 L 39.410156 36.007812 C 39.453125 36.183594 39.464844 36.359375 39.441406 36.535156 C 39.417969 36.714844 39.359375 36.878906 39.265625 37.035156 C 39.175781 37.191406 39.058594 37.320312 38.914062 37.429688 C 38.773438 37.539062 38.613281 37.613281 38.4375 37.65625 C 38.332031 37.683594 38.21875 37.695312 38.109375 37.695312 Z M 38.109375 37.695312 "/>
<path style=" stroke:none;fill-rule:nonzero;fill:rgb(2.749634%,58.428955%,100%);fill-opacity:1;" d="M 33.042969 34.777344 C 32.742188 34.777344 32.472656 34.691406 32.230469 34.511719 C 31.988281 34.328125 31.828125 34.09375 31.742188 33.804688 L 30.269531 28.304688 C 30.222656 28.128906 30.210938 27.953125 30.238281 27.777344 C 30.261719 27.597656 30.320312 27.433594 30.410156 27.277344 C 30.5 27.121094 30.617188 26.992188 30.761719 26.882812 C 30.90625 26.773438 31.066406 26.699219 31.238281 26.652344 L 36.742188 25.179688 C 36.910156 25.144531 37.078125 25.140625 37.246094 25.171875 C 37.417969 25.203125 37.574219 25.261719 37.71875 25.351562 C 37.867188 25.441406 37.992188 25.558594 38.09375 25.695312 C 38.195312 25.832031 38.269531 25.984375 38.316406 26.152344 C 38.359375 26.316406 38.371094 26.484375 38.351562 26.65625 C 38.332031 26.828125 38.28125 26.988281 38.199219 27.140625 C 38.117188 27.289062 38.011719 27.421875 37.882812 27.53125 C 37.75 27.644531 37.601562 27.726562 37.4375 27.78125 L 33.226562 28.90625 L 34.355469 33.105469 C 34.398438 33.28125 34.410156 33.457031 34.386719 33.632812 C 34.359375 33.8125 34.304688 33.980469 34.210938 34.132812 C 34.121094 34.289062 34.003906 34.421875 33.859375 34.527344 C 33.714844 34.636719 33.558594 34.710938 33.382812 34.757812 C 33.269531 34.773438 33.15625 34.78125 33.042969 34.777344 Z M 33.042969 34.777344 "/>
<g clip-path="url(#clip2)" clip-rule="nonzero">
<path style=" stroke:none;fill-rule:nonzero;fill:rgb(2.749634%,58.428955%,100%);fill-opacity:1;" d="M 5.390625 36.09375 C 4.980469 36.101562 4.617188 35.980469 4.289062 35.734375 C 3.964844 35.488281 3.75 35.167969 3.644531 34.777344 C 3.539062 34.382812 3.5625 34 3.71875 33.621094 C 3.875 33.246094 4.132812 32.957031 4.484375 32.757812 L 41.71875 11.253906 C 41.921875 11.148438 42.140625 11.082031 42.371094 11.0625 C 42.601562 11.039062 42.828125 11.058594 43.050781 11.125 C 43.269531 11.1875 43.472656 11.292969 43.65625 11.433594 C 43.835938 11.578125 43.984375 11.75 44.101562 11.949219 C 44.214844 12.148438 44.289062 12.363281 44.324219 12.59375 C 44.355469 12.820312 44.34375 13.046875 44.289062 13.273438 C 44.234375 13.496094 44.140625 13.703125 44.007812 13.890625 C 43.871094 14.078125 43.707031 14.234375 43.515625 14.359375 L 6.28125 35.863281 C 6.003906 36.015625 5.707031 36.09375 5.390625 36.09375 Z M 5.390625 36.09375 "/>
</g>
<path style=" stroke:none;fill-rule:nonzero;fill:rgb(2.749634%,58.428955%,100%);fill-opacity:1;" d="M 9.902344 37.695312 C 9.785156 37.710938 9.667969 37.710938 9.550781 37.695312 C 9.378906 37.652344 9.21875 37.578125 9.074219 37.472656 C 8.933594 37.363281 8.816406 37.234375 8.722656 37.078125 C 8.632812 36.925781 8.574219 36.761719 8.550781 36.582031 C 8.523438 36.40625 8.535156 36.230469 8.582031 36.058594 L 9.707031 31.84375 L 5.5625 30.671875 C 5.390625 30.625 5.234375 30.550781 5.09375 30.441406 C 4.953125 30.332031 4.835938 30.203125 4.75 30.046875 C 4.660156 29.894531 4.601562 29.730469 4.578125 29.554688 C 4.554688 29.378906 4.566406 29.203125 4.613281 29.03125 C 4.65625 28.859375 4.734375 28.703125 4.84375 28.5625 C 4.949219 28.421875 5.082031 28.304688 5.234375 28.214844 C 5.390625 28.128906 5.554688 28.070312 5.730469 28.046875 C 5.90625 28.023438 6.082031 28.035156 6.253906 28.082031 L 11.753906 29.554688 C 11.929688 29.597656 12.085938 29.671875 12.230469 29.777344 C 12.375 29.886719 12.496094 30.015625 12.585938 30.171875 C 12.675781 30.324219 12.734375 30.492188 12.757812 30.667969 C 12.78125 30.847656 12.769531 31.023438 12.722656 31.195312 L 11.191406 36.699219 C 11.113281 36.992188 10.957031 37.230469 10.714844 37.417969 C 10.476562 37.601562 10.203125 37.695312 9.902344 37.695312 Z M 9.902344 37.695312 "/>
<path style=" stroke:none;fill-rule:nonzero;fill:rgb(2.749634%,58.428955%,100%);fill-opacity:1;" d="M 14.964844 34.765625 C 14.847656 34.785156 14.734375 34.785156 14.617188 34.765625 C 14.441406 34.722656 14.285156 34.648438 14.140625 34.539062 C 13.996094 34.433594 13.878906 34.304688 13.789062 34.148438 C 13.699219 33.996094 13.640625 33.828125 13.613281 33.652344 C 13.589844 33.476562 13.601562 33.300781 13.644531 33.125 L 14.773438 28.925781 L 10.570312 27.800781 C 10.386719 27.761719 10.222656 27.691406 10.070312 27.582031 C 9.917969 27.476562 9.792969 27.34375 9.695312 27.1875 C 9.597656 27.027344 9.535156 26.855469 9.507812 26.671875 C 9.480469 26.488281 9.492188 26.308594 9.539062 26.128906 C 9.585938 25.949219 9.667969 25.785156 9.785156 25.640625 C 9.898438 25.496094 10.039062 25.378906 10.203125 25.289062 C 10.367188 25.203125 10.542969 25.148438 10.726562 25.132812 C 10.910156 25.117188 11.09375 25.140625 11.269531 25.199219 L 16.769531 26.671875 C 17.128906 26.769531 17.398438 26.976562 17.585938 27.292969 C 17.765625 27.621094 17.8125 27.960938 17.722656 28.324219 L 16.238281 33.777344 C 16.15625 34.0625 16 34.296875 15.765625 34.480469 C 15.53125 34.664062 15.261719 34.757812 14.964844 34.765625 Z M 14.964844 34.765625 "/>
<path style=" stroke:none;fill-rule:nonzero;fill:rgb(2.749634%,58.428955%,100%);fill-opacity:1;" d="M 42.136719 19.085938 C 42.015625 19.082031 41.902344 19.066406 41.785156 19.035156 L 36.285156 17.5625 C 36.109375 17.515625 35.953125 17.4375 35.808594 17.332031 C 35.667969 17.222656 35.550781 17.089844 35.460938 16.9375 C 35.367188 16.78125 35.3125 16.617188 35.285156 16.4375 C 35.261719 16.261719 35.269531 16.085938 35.3125 15.914062 L 36.789062 10.410156 C 36.84375 10.246094 36.925781 10.101562 37.035156 9.96875 C 37.148438 9.835938 37.277344 9.730469 37.429688 9.648438 C 37.582031 9.566406 37.742188 9.519531 37.914062 9.496094 C 38.085938 9.476562 38.253906 9.492188 38.417969 9.535156 C 38.585938 9.578125 38.738281 9.652344 38.875 9.757812 C 39.011719 9.859375 39.125 9.984375 39.214844 10.128906 C 39.308594 10.277344 39.367188 10.433594 39.398438 10.601562 C 39.425781 10.773438 39.425781 10.941406 39.390625 11.109375 L 38.285156 15.3125 L 42.484375 16.4375 C 42.808594 16.527344 43.066406 16.710938 43.25 16.992188 C 43.4375 17.273438 43.507812 17.578125 43.464844 17.914062 C 43.421875 18.246094 43.273438 18.523438 43.019531 18.746094 C 42.765625 18.96875 42.472656 19.082031 42.136719 19.085938 Z M 42.136719 19.085938 "/>
<path style=" stroke:none;fill-rule:nonzero;fill:rgb(2.749634%,58.428955%,100%);fill-opacity:1;" d="M 37.070312 22.007812 C 36.953125 22.019531 36.835938 22.019531 36.722656 22.007812 L 31.21875 20.53125 C 31.046875 20.488281 30.886719 20.410156 30.742188 20.300781 C 30.597656 20.195312 30.480469 20.0625 30.390625 19.910156 C 30.300781 19.753906 30.242188 19.585938 30.21875 19.410156 C 30.191406 19.230469 30.203125 19.054688 30.25 18.882812 L 31.761719 13.339844 C 31.808594 13.167969 31.886719 13.011719 31.996094 12.871094 C 32.105469 12.730469 32.234375 12.617188 32.390625 12.527344 C 32.542969 12.4375 32.707031 12.382812 32.886719 12.359375 C 33.0625 12.335938 33.234375 12.347656 33.40625 12.394531 C 33.578125 12.441406 33.734375 12.519531 33.875 12.628906 C 34.019531 12.734375 34.132812 12.867188 34.222656 13.019531 C 34.308594 13.175781 34.367188 13.339844 34.390625 13.515625 C 34.410156 13.695312 34.398438 13.867188 34.355469 14.039062 L 33.226562 18.242188 L 37.4375 19.367188 C 37.769531 19.449219 38.035156 19.628906 38.226562 19.910156 C 38.417969 20.195312 38.492188 20.503906 38.449219 20.84375 C 38.402344 21.183594 38.25 21.460938 37.992188 21.683594 C 37.730469 21.90625 37.429688 22.015625 37.089844 22.007812 Z M 37.070312 22.007812 "/>
</g>
</svg>
