<?xml version="1.0" encoding="UTF-8"?>
<svg xmlns="http://www.w3.org/2000/svg" xmlns:xlink="http://www.w3.org/1999/xlink" width="48pt" height="48pt" viewBox="0 0 48 48" version="1.2">
<defs>
<clipPath id="clip1">
  <path d="M 15.410156 11.882812 L 41.527344 11.882812 L 41.527344 43.917969 L 15.410156 43.917969 Z M 15.410156 11.882812 "/>
</clipPath>
<clipPath id="clip2">
  <path d="M 7.476562 3.914062 L 31.53125 3.914062 L 31.53125 33.933594 L 7.476562 33.933594 Z M 7.476562 3.914062 "/>
</clipPath>
</defs>
<g id="surface1">
<g clip-path="url(#clip1)" clip-rule="nonzero">
<path style=" stroke:none;fill-rule:nonzero;fill:rgb(85.099792%,85.099792%,85.099792%);fill-opacity:1;" d="M 37.519531 15.914062 L 37.519531 39.917969 L 19.492188 39.917969 L 19.492188 15.914062 L 37.519531 15.914062 M 37.519531 11.914062 L 19.492188 11.914062 C 17.289062 11.914062 15.488281 13.714844 15.488281 15.914062 L 15.488281 39.917969 C 15.488281 42.117188 17.289062 43.917969 19.492188 43.917969 L 37.519531 43.917969 C 39.722656 43.917969 41.527344 42.117188 41.527344 39.917969 L 41.527344 15.914062 C 41.527344 13.714844 39.722656 11.914062 37.519531 11.914062 Z M 37.519531 11.914062 "/>
</g>
<g clip-path="url(#clip2)" clip-rule="nonzero">
<path style=" stroke:none;fill-rule:nonzero;fill:rgb(85.099792%,85.099792%,85.099792%);fill-opacity:1;" d="M 11.480469 33.917969 L 11.480469 7.914062 L 31.511719 7.914062 L 31.511719 3.914062 L 11.480469 3.914062 C 9.277344 3.914062 7.476562 5.710938 7.476562 7.914062 L 7.476562 33.917969 Z M 11.480469 33.917969 "/>
</g>
</g>
</svg>
