<?xml version="1.0" encoding="UTF-8"?>
<svg xmlns="http://www.w3.org/2000/svg" xmlns:xlink="http://www.w3.org/1999/xlink" width="30pt" height="30.000001pt" viewBox="0 0 30 30.000001" version="1.2">
<defs>
<clipPath id="clip1">
  <path d="M 0.484375 0 L 29.515625 0 L 29.515625 29.03125 L 0.484375 29.03125 Z M 0.484375 0 "/>
</clipPath>
<clipPath id="clip2">
  <path d="M 5.800781 6.640625 L 23.945312 6.640625 L 23.945312 22.605469 L 5.800781 22.605469 Z M 5.800781 6.640625 "/>
</clipPath>
</defs>
<g id="surface1">
<g clip-path="url(#clip1)" clip-rule="nonzero">
<path style=" stroke:none;fill-rule:nonzero;fill:rgb(11.759949%,11.369324%,11.369324%);fill-opacity:1;" d="M 29.515625 14.515625 C 29.515625 15.46875 29.421875 16.414062 29.238281 17.347656 C 29.050781 18.28125 28.777344 19.191406 28.410156 20.070312 C 28.046875 20.953125 27.597656 21.789062 27.070312 22.582031 C 26.539062 23.375 25.9375 24.105469 25.265625 24.78125 C 24.589844 25.453125 23.855469 26.054688 23.066406 26.585938 C 22.273438 27.117188 21.4375 27.5625 20.554688 27.925781 C 19.675781 28.292969 18.765625 28.566406 17.832031 28.753906 C 16.898438 28.9375 15.953125 29.03125 15 29.03125 C 14.046875 29.03125 13.101562 28.9375 12.167969 28.753906 C 11.234375 28.566406 10.324219 28.292969 9.445312 27.925781 C 8.5625 27.5625 7.726562 27.117188 6.933594 26.585938 C 6.144531 26.054688 5.410156 25.453125 4.734375 24.78125 C 4.0625 24.105469 3.460938 23.375 2.929688 22.582031 C 2.402344 21.789062 1.953125 20.953125 1.589844 20.070312 C 1.222656 19.191406 0.949219 18.28125 0.761719 17.347656 C 0.578125 16.414062 0.484375 15.46875 0.484375 14.515625 C 0.484375 13.5625 0.578125 12.617188 0.761719 11.683594 C 0.949219 10.75 1.222656 9.839844 1.589844 8.960938 C 1.953125 8.082031 2.402344 7.242188 2.929688 6.453125 C 3.460938 5.660156 4.0625 4.925781 4.734375 4.25 C 5.410156 3.578125 6.144531 2.976562 6.933594 2.445312 C 7.726562 1.917969 8.5625 1.46875 9.445312 1.105469 C 10.324219 0.738281 11.234375 0.464844 12.167969 0.277344 C 13.101562 0.09375 14.046875 0 15 0 C 15.953125 0 16.898438 0.09375 17.832031 0.277344 C 18.765625 0.464844 19.675781 0.738281 20.554688 1.105469 C 21.4375 1.46875 22.273438 1.917969 23.066406 2.445312 C 23.855469 2.976562 24.589844 3.578125 25.265625 4.25 C 25.9375 4.925781 26.539062 5.660156 27.070312 6.453125 C 27.597656 7.242188 28.046875 8.082031 28.410156 8.960938 C 28.777344 9.839844 29.050781 10.75 29.238281 11.683594 C 29.421875 12.617188 29.515625 13.5625 29.515625 14.515625 Z M 29.515625 14.515625 "/>
</g>
<g clip-path="url(#clip2)" clip-rule="nonzero">
<path style=" stroke:none;fill-rule:nonzero;fill:rgb(100%,100%,100%);fill-opacity:1;" d="M 11.851562 21.976562 C 11.851562 22.371094 11.648438 22.605469 11.355469 22.605469 C 11.253906 22.605469 11.136719 22.578125 11.015625 22.515625 L 6.3125 20.066406 C 6.035156 19.921875 5.808594 19.542969 5.808594 19.222656 L 5.808594 7.222656 C 5.808594 6.90625 5.972656 6.71875 6.207031 6.71875 C 6.289062 6.71875 6.382812 6.738281 6.480469 6.789062 L 6.644531 6.878906 L 11.832031 9.574219 C 11.839844 9.578125 11.84375 9.589844 11.851562 9.59375 Z M 17.285156 7.476562 L 17.601562 6.9375 C 17.714844 6.75 17.921875 6.640625 18.132812 6.640625 C 18.183594 6.640625 18.230469 6.648438 18.28125 6.660156 C 18.316406 6.667969 18.355469 6.683594 18.398438 6.703125 L 23.867188 9.546875 C 23.867188 9.546875 23.867188 9.550781 23.867188 9.550781 L 23.871094 9.550781 C 23.875 9.554688 23.875 9.558594 23.878906 9.5625 C 23.90625 9.582031 23.917969 9.621094 23.898438 9.652344 L 18.453125 18.863281 L 17.898438 19.800781 L 14.289062 12.539062 Z M 12.714844 17.109375 L 12.714844 11.324219 L 16.59375 19.128906 L 13.105469 17.3125 Z M 23.9375 21.976562 C 23.9375 22.347656 23.722656 22.558594 23.410156 22.558594 C 23.265625 22.558594 23.105469 22.515625 22.933594 22.429688 L 22.152344 22.023438 L 18.667969 20.207031 L 23.9375 11.296875 Z M 23.9375 21.976562 "/>
</g>
</g>
</svg>
