<?xml version="1.0" encoding="UTF-8"?>
<svg xmlns="http://www.w3.org/2000/svg" xmlns:xlink="http://www.w3.org/1999/xlink" width="48pt" height="48pt" viewBox="0 0 48 48" version="1.2">
<g id="surface1">
<path style=" stroke:none;fill-rule:nonzero;fill:rgb(61.569214%,50.19989%,18.818665%);fill-opacity:1;" d="M 19.222656 8.75 C 19.222656 8.75 19.214844 9.503906 18.804688 10.386719 C 18.804688 10.386719 17.78125 12.003906 15.078125 11.796875 C 12.46875 11.597656 12.21875 9.59375 12.21875 9.59375 C 12.21875 9.59375 12.257812 8.535156 12.414062 8.066406 C 12.566406 7.601562 19.222656 8.75 19.222656 8.75 "/>
<path style=" stroke:none;fill-rule:nonzero;fill:rgb(97.24884%,85.879517%,19.60907%);fill-opacity:1;" d="M 16.097656 6.140625 C 19.628906 6.363281 20.921875 10.777344 15.972656 10.871094 C 11.019531 10.964844 11.277344 5.839844 16.097656 6.140625 "/>
<path style=" stroke:none;fill-rule:nonzero;fill:rgb(61.569214%,50.19989%,18.818665%);fill-opacity:1;" d="M 25.753906 8.5 C 25.753906 8.5 25.574219 9.230469 24.972656 9.996094 C 24.972656 9.996094 23.609375 11.339844 21.023438 10.515625 C 18.53125 9.726562 18.742188 7.71875 18.742188 7.71875 C 18.742188 7.71875 19.023438 6.695312 19.28125 6.277344 C 19.535156 5.859375 25.753906 8.5 25.753906 8.5 "/>
<path style=" stroke:none;fill-rule:nonzero;fill:rgb(79.60968%,70.979309%,14.118958%);fill-opacity:1;" d="M 23.308594 5.246094 C 26.695312 6.269531 26.945312 10.859375 22.105469 9.820312 C 17.261719 8.777344 18.683594 3.847656 23.308594 5.246094 "/>
<path style=" stroke:none;fill-rule:nonzero;fill:rgb(61.569214%,50.19989%,18.818665%);fill-opacity:1;" d="M 7.828125 13.734375 C 7.828125 13.734375 8.183594 14.394531 8.960938 14.984375 C 8.960938 14.984375 10.183594 15.578125 12.476562 14.125 C 14.6875 12.726562 14.5 11.351562 14.5 11.351562 C 14.5 11.351562 13.882812 10.28125 13.527344 9.941406 C 13.171875 9.601562 7.828125 13.734375 7.828125 13.734375 "/>
<path style=" stroke:none;fill-rule:nonzero;fill:rgb(97.24884%,85.879517%,19.60907%);fill-opacity:1;" d="M 9.855469 10.542969 C 6.839844 12.394531 6.828125 15.726562 11.25 13.488281 C 15.671875 11.253906 13.976562 8.019531 9.855469 10.542969 "/>
<path style=" stroke:none;fill-rule:nonzero;fill:rgb(61.569214%,50.19989%,18.818665%);fill-opacity:1;" d="M 34.445312 8.097656 C 34.445312 8.097656 34.019531 8.714844 33.847656 9.675781 C 33.847656 9.675781 33.878906 11.035156 36.214844 12.417969 C 38.464844 13.753906 39.601562 12.957031 39.601562 12.957031 C 39.601562 12.957031 40.273438 11.917969 40.414062 11.449219 C 40.554688 10.980469 34.445312 8.097656 34.445312 8.097656 "/>
<path style=" stroke:none;fill-rule:nonzero;fill:rgb(97.24884%,85.879517%,19.60907%);fill-opacity:1;" d="M 38.207031 8.449219 C 35.1875 6.605469 32.21875 8.113281 36.222656 11.035156 C 40.222656 13.957031 42.328125 10.972656 38.207031 8.449219 "/>
<path style=" stroke:none;fill-rule:nonzero;fill:rgb(61.569214%,50.19989%,18.818665%);fill-opacity:1;" d="M 32.242188 14.804688 C 32.242188 14.804688 32.164062 15.554688 32.472656 16.476562 C 32.472656 16.476562 33.308594 18.199219 36.019531 18.296875 C 38.632812 18.386719 39.105469 16.425781 39.105469 16.425781 C 39.105469 16.425781 39.1875 15.367188 39.085938 14.890625 C 38.984375 14.410156 32.242188 14.804688 32.242188 14.804688 "/>
<path style=" stroke:none;fill-rule:nonzero;fill:rgb(79.60968%,70.979309%,14.118958%);fill-opacity:1;" d="M 35.636719 12.5625 C 32.101562 12.386719 30.324219 16.628906 35.234375 17.277344 C 40.144531 17.921875 40.460938 12.800781 35.636719 12.5625 "/>
<path style=" stroke:none;fill-rule:nonzero;fill:rgb(61.569214%,50.19989%,18.818665%);fill-opacity:1;" d="M 42.601562 14.816406 C 42.601562 14.816406 42.550781 15.566406 42.089844 16.425781 C 42.089844 16.425781 41.226562 17.472656 38.535156 17.113281 C 35.945312 16.761719 35.542969 15.433594 35.542969 15.433594 C 35.542969 15.433594 35.660156 14.199219 35.839844 13.746094 C 36.019531 13.289062 42.601562 14.816406 42.601562 14.816406 "/>
<path style=" stroke:none;fill-rule:nonzero;fill:rgb(97.24884%,85.879517%,19.60907%);fill-opacity:1;" d="M 39.429688 12.761719 C 42.941406 13.183594 44.335938 16.210938 39.386719 16.019531 C 34.4375 15.832031 34.632812 12.183594 39.429688 12.761719 "/>
<path style=" stroke:none;fill-rule:nonzero;fill:rgb(61.569214%,50.19989%,18.818665%);fill-opacity:1;" d="M 15.710938 12.777344 C 15.710938 12.777344 15.941406 13.496094 16.59375 14.21875 C 16.59375 14.21875 18.042969 15.464844 20.566406 14.46875 C 23.003906 13.507812 22.652344 11.519531 22.652344 11.519531 C 22.652344 11.519531 22.304688 10.519531 22.019531 10.121094 C 21.734375 9.722656 15.710938 12.777344 15.710938 12.777344 "/>
<path style=" stroke:none;fill-rule:nonzero;fill:rgb(97.24884%,85.879517%,19.60907%);fill-opacity:1;" d="M 17.929688 9.367188 C 14.621094 10.617188 14.683594 15.214844 19.441406 13.847656 C 24.203125 12.480469 22.449219 7.65625 17.929688 9.367188 "/>
<path style=" stroke:none;fill-rule:nonzero;fill:rgb(61.569214%,50.19989%,18.818665%);fill-opacity:1;" d="M 11.539062 12.949219 C 11.539062 12.949219 11.484375 13.699219 11.824219 14.613281 C 11.824219 14.613281 12.539062 15.773438 15.25 15.78125 C 17.867188 15.789062 18.445312 14.527344 18.445312 14.527344 C 18.445312 14.527344 18.496094 13.292969 18.382812 12.816406 C 18.265625 12.339844 11.539062 12.949219 11.539062 12.949219 "/>
<path style=" stroke:none;fill-rule:nonzero;fill:rgb(79.60968%,70.979309%,14.118958%);fill-opacity:1;" d="M 14.960938 11.347656 C 11.425781 11.285156 9.628906 14.09375 14.554688 14.582031 C 19.484375 15.074219 19.789062 11.433594 14.960938 11.347656 "/>
<path style=" stroke:none;fill-rule:nonzero;fill:rgb(61.569214%,50.19989%,18.818665%);fill-opacity:1;" d="M 20.398438 16.09375 C 20.398438 16.09375 20.476562 16.84375 20.164062 17.769531 C 20.164062 17.769531 19.332031 19.492188 16.621094 19.585938 C 14.007812 19.679688 13.53125 17.714844 13.53125 17.714844 C 13.53125 17.714844 13.453125 16.660156 13.554688 16.179688 C 13.65625 15.699219 20.398438 16.09375 20.398438 16.09375 "/>
<path style=" stroke:none;fill-rule:nonzero;fill:rgb(79.60968%,70.979309%,14.118958%);fill-opacity:1;" d="M 17.003906 13.851562 C 20.539062 13.679688 22.3125 17.917969 17.402344 18.566406 C 12.492188 19.214844 12.179688 14.09375 17.003906 13.851562 "/>
<path style=" stroke:none;fill-rule:nonzero;fill:rgb(61.569214%,50.19989%,18.818665%);fill-opacity:1;" d="M 33.824219 18 C 33.824219 18 33.300781 18.539062 32.394531 18.898438 C 32.394531 18.898438 30.542969 19.371094 28.722656 17.355469 C 26.96875 15.414062 28.164062 13.789062 28.164062 13.789062 C 28.164062 13.789062 28.917969 13.046875 29.351562 12.816406 C 29.78125 12.582031 33.824219 18 33.824219 18 "/>
<path style=" stroke:none;fill-rule:nonzero;fill:rgb(97.24884%,85.879517%,19.60907%);fill-opacity:1;" d="M 33.347656 13.957031 C 35.761719 16.546875 33.667969 20.640625 30.007812 17.296875 C 26.347656 13.957031 30.058594 10.417969 33.347656 13.957031 "/>
<path style=" stroke:none;fill-rule:nonzero;fill:rgb(61.569214%,50.19989%,18.818665%);fill-opacity:1;" d="M 30.140625 16.117188 C 30.140625 16.117188 29.960938 16.847656 29.359375 17.613281 C 29.359375 17.613281 28.328125 18.496094 25.742188 17.675781 C 23.246094 16.882812 23.082031 15.503906 23.082031 15.503906 C 23.082031 15.503906 23.410156 14.3125 23.664062 13.894531 C 23.921875 13.472656 30.140625 16.117188 30.140625 16.117188 "/>
<path style=" stroke:none;fill-rule:nonzero;fill:rgb(79.60968%,70.979309%,14.118958%);fill-opacity:1;" d="M 27.367188 13.542969 C 30.757812 14.566406 31.609375 17.789062 26.765625 16.746094 C 21.925781 15.707031 22.746094 12.144531 27.367188 13.542969 "/>
<path style=" stroke:none;fill-rule:nonzero;fill:rgb(61.569214%,50.19989%,18.818665%);fill-opacity:1;" d="M 30.539062 4.78125 C 30.539062 4.78125 30.507812 5.53125 30.070312 6.402344 C 30.070312 6.402344 29.230469 7.472656 26.535156 7.179688 C 23.933594 6.894531 23.496094 5.578125 23.496094 5.578125 C 23.496094 5.578125 23.585938 4.34375 23.753906 3.882812 C 23.921875 3.421875 30.539062 4.78125 30.539062 4.78125 "/>
<path style=" stroke:none;fill-rule:nonzero;fill:rgb(79.60968%,70.979309%,14.118958%);fill-opacity:1;" d="M 27.316406 2.808594 C 30.839844 3.140625 32.308594 6.128906 27.355469 6.066406 C 22.40625 6.003906 22.507812 2.351562 27.316406 2.808594 "/>
<path style=" stroke:none;fill-rule:nonzero;fill:rgb(61.569214%,50.19989%,18.818665%);fill-opacity:1;" d="M 18.457031 16.457031 C 18.457031 16.457031 18.636719 17.1875 19.238281 17.953125 C 19.238281 17.953125 20.269531 18.839844 22.855469 18.015625 C 25.347656 17.222656 25.515625 15.847656 25.515625 15.847656 C 25.515625 15.847656 25.1875 14.652344 24.929688 14.234375 C 24.675781 13.816406 18.457031 16.457031 18.457031 16.457031 "/>
<path style=" stroke:none;fill-rule:nonzero;fill:rgb(97.24884%,85.879517%,19.60907%);fill-opacity:1;" d="M 21.226562 13.882812 C 17.839844 14.90625 16.988281 18.128906 21.828125 17.089844 C 26.671875 16.046875 25.851562 12.488281 21.226562 13.882812 "/>
<path style=" stroke:none;fill-rule:nonzero;fill:rgb(10.198975%,10.198975%,9.408569%);fill-opacity:1;" d="M 46.367188 16.113281 C 47.410156 14.214844 45.574219 11.878906 43.324219 13.1875 C 41.289062 14.371094 40.390625 14.757812 39.261719 15.242188 C 36.328125 16.503906 29.667969 18.101562 21.320312 16.804688 C 12.972656 15.511719 11.324219 14.257812 9.269531 12.203125 C 7.214844 10.148438 5.703125 9.953125 5.027344 11.175781 C 4.492188 12.148438 4.929688 13.589844 6.101562 14.996094 C 6.101562 14.996094 0.8125 21.09375 4.628906 30.207031 C 5.664062 32.6875 7.199219 34.820312 9.101562 36.574219 C 9.066406 36.824219 9.070312 37.164062 9.164062 37.617188 C 9.449219 38.9375 9.484375 39.761719 8.996094 39.910156 C 8.511719 40.0625 8.3125 39.828125 8.261719 39.542969 C 8.210938 39.257812 8.144531 38.519531 7.324219 38.488281 C 6.503906 38.453125 5.582031 39.273438 6.1875 41 C 6.789062 42.726562 9.75 43.039062 11.308594 41.378906 C 12.113281 40.523438 12.484375 39.734375 12.652344 39.171875 C 17.472656 41.941406 23.625 42.898438 29.933594 41.667969 C 31.425781 41.375 32.824219 40.953125 34.121094 40.414062 C 34.222656 40.960938 34.550781 41.929688 35.5625 43.007812 C 37.117188 44.667969 40.082031 44.355469 40.683594 42.628906 C 41.285156 40.902344 40.367188 40.082031 39.546875 40.117188 C 38.726562 40.148438 38.65625 40.886719 38.609375 41.171875 C 38.558594 41.457031 38.355469 41.691406 37.871094 41.539062 C 37.386719 41.390625 37.417969 40.566406 37.703125 39.246094 C 37.777344 38.894531 37.796875 38.617188 37.785156 38.390625 C 43.515625 34.296875 46.042969 27.234375 43.859375 19.128906 C 43.859375 19.128906 45.554688 17.585938 46.367188 16.113281 "/>
<path style=" stroke:none;fill-rule:nonzero;fill:rgb(61.569214%,50.19989%,18.818665%);fill-opacity:1;" d="M 20.257812 13.144531 C 20.257812 13.144531 20.4375 13.875 21.039062 14.640625 C 21.039062 14.640625 22.402344 15.984375 24.988281 15.164062 C 27.484375 14.371094 27.269531 12.363281 27.269531 12.363281 C 27.269531 12.363281 26.988281 11.339844 26.734375 10.921875 C 26.476562 10.503906 20.257812 13.144531 20.257812 13.144531 "/>
<path style=" stroke:none;fill-rule:nonzero;fill:rgb(79.60968%,70.979309%,14.118958%);fill-opacity:1;" d="M 22.703125 9.890625 C 19.316406 10.914062 19.066406 15.503906 23.910156 14.464844 C 28.75 13.421875 27.328125 8.496094 22.703125 9.890625 "/>
<path style=" stroke:none;fill-rule:nonzero;fill:rgb(61.569214%,50.19989%,18.818665%);fill-opacity:1;" d="M 31.773438 13.585938 C 31.773438 13.585938 31.417969 14.246094 30.640625 14.835938 C 30.640625 14.835938 29.417969 15.429688 27.125 13.976562 C 24.914062 12.578125 25.101562 11.203125 25.101562 11.203125 C 25.101562 11.203125 25.722656 10.132812 26.074219 9.792969 C 26.429688 9.453125 31.773438 13.585938 31.773438 13.585938 "/>
<path style=" stroke:none;fill-rule:nonzero;fill:rgb(97.24884%,85.879517%,19.60907%);fill-opacity:1;" d="M 29.746094 10.394531 C 32.765625 12.242188 32.773438 15.574219 28.351562 13.339844 C 23.933594 11.105469 25.628906 7.871094 29.746094 10.394531 "/>
<path style=" stroke:none;fill-rule:nonzero;fill:rgb(61.569214%,50.19989%,18.818665%);fill-opacity:1;" d="M 37.699219 12.019531 C 37.699219 12.019531 37.753906 12.769531 37.414062 13.683594 C 37.414062 13.683594 36.703125 14.839844 33.988281 14.851562 C 31.371094 14.859375 30.792969 13.597656 30.792969 13.597656 C 30.792969 13.597656 30.742188 12.363281 30.855469 11.886719 C 30.972656 11.410156 37.699219 12.019531 37.699219 12.019531 "/>
<path style=" stroke:none;fill-rule:nonzero;fill:rgb(79.60968%,70.979309%,14.118958%);fill-opacity:1;" d="M 34.277344 10.417969 C 37.8125 10.355469 39.609375 13.160156 34.683594 13.652344 C 29.753906 14.144531 29.449219 10.503906 34.277344 10.417969 "/>
<path style=" stroke:none;fill-rule:nonzero;fill:rgb(61.569214%,50.19989%,18.818665%);fill-opacity:1;" d="M 22.019531 9.363281 C 22.019531 9.363281 22.207031 10.089844 22.820312 10.847656 C 22.820312 10.847656 24.207031 12.167969 26.78125 11.304688 C 29.261719 10.472656 29.015625 8.46875 29.015625 8.46875 C 29.015625 8.46875 28.71875 7.449219 28.457031 7.035156 C 28.191406 6.621094 22.019531 9.363281 22.019531 9.363281 "/>
<path style=" stroke:none;fill-rule:nonzero;fill:rgb(97.24884%,85.879517%,19.60907%);fill-opacity:1;" d="M 24.410156 6.070312 C 21.039062 7.148438 20.863281 11.742188 25.6875 10.625 C 30.511719 9.503906 29.011719 4.597656 24.410156 6.070312 "/>
<path style=" stroke:none;fill-rule:nonzero;fill:rgb(61.569214%,50.19989%,18.818665%);fill-opacity:1;" d="M 15.863281 9.773438 C 15.863281 9.773438 15.867188 10.527344 16.273438 11.414062 C 16.273438 11.414062 17.074219 12.511719 19.777344 12.316406 C 22.386719 12.125 22.871094 10.824219 22.871094 10.824219 C 22.871094 10.824219 22.828125 9.585938 22.675781 9.121094 C 22.523438 8.652344 15.863281 9.773438 15.863281 9.773438 "/>
<path style=" stroke:none;fill-rule:nonzero;fill:rgb(79.60968%,70.979309%,14.118958%);fill-opacity:1;" d="M 19.15625 7.917969 C 15.625 8.125 14.046875 11.058594 18.996094 11.171875 C 23.949219 11.289062 23.976562 7.636719 19.15625 7.917969 "/>
<path style=" stroke:none;fill-rule:nonzero;fill:rgb(61.569214%,50.19989%,18.818665%);fill-opacity:1;" d="M 34.824219 8.410156 C 34.824219 8.410156 34.832031 9.160156 34.4375 10.054688 C 34.4375 10.054688 33.449219 11.691406 30.742188 11.539062 C 28.128906 11.390625 27.839844 9.394531 27.839844 9.394531 C 27.839844 9.394531 27.855469 8.332031 28 7.863281 C 28.144531 7.394531 34.824219 8.410156 34.824219 8.410156 "/>
<path style=" stroke:none;fill-rule:nonzero;fill:rgb(97.24884%,85.879517%,19.60907%);fill-opacity:1;" d="M 31.648438 5.863281 C 35.183594 6.015625 36.5625 10.398438 31.613281 10.59375 C 26.664062 10.789062 26.820312 5.660156 31.648438 5.863281 "/>
<path style=" stroke:none;fill-rule:nonzero;fill:rgb(100%,100%,100%);fill-opacity:1;" d="M 41.9375 15.136719 C 41.9375 15.136719 36.375 18.128906 29.566406 18.128906 C 29.566406 18.128906 31.464844 18.894531 35.949219 18.039062 C 40.4375 17.183594 41.9375 15.136719 41.9375 15.136719 "/>
<path style=" stroke:none;fill-rule:nonzero;fill:rgb(100%,100%,100%);fill-opacity:1;" d="M 6.503906 16.160156 C 6.503906 16.160156 9.058594 18.417969 12.757812 19.4375 C 12.757812 19.4375 10.429688 19.367188 6.957031 18.144531 C 6.957031 18.144531 5.472656 19.355469 4.351562 22.335938 C 4.351562 22.335938 4.511719 19.691406 6.503906 16.160156 "/>
</g>
</svg>
