<?xml version="1.0" encoding="UTF-8"?>
<svg xmlns="http://www.w3.org/2000/svg" xmlns:xlink="http://www.w3.org/1999/xlink" width="48pt" height="48pt" viewBox="0 0 48 48" version="1.2">
<defs>
<clipPath id="clip1">
  <path d="M 0.488281 0 L 47.507812 0 L 47.507812 47.019531 L 0.488281 47.019531 Z M 0.488281 0 "/>
</clipPath>
<clipPath id="clip2">
  <path d="M 9.085938 6.953125 L 41 6.953125 L 41 26 L 9.085938 26 Z M 9.085938 6.953125 "/>
</clipPath>
<clipPath id="clip3">
  <path d="M 7.210938 21 L 39 21 L 39 40.015625 L 7.210938 40.015625 Z M 7.210938 21 "/>
</clipPath>
</defs>
<g id="surface1">
<g clip-path="url(#clip1)" clip-rule="nonzero">
<path style=" stroke:none;fill-rule:nonzero;fill:rgb(0%,34.118652%,100%);fill-opacity:1;" d="M 24 0 C 23.230469 0 22.460938 0.0390625 21.695312 0.113281 C 20.929688 0.1875 20.167969 0.300781 19.414062 0.453125 C 18.65625 0.601562 17.914062 0.789062 17.175781 1.011719 C 16.4375 1.234375 15.714844 1.496094 15.003906 1.789062 C 14.292969 2.085938 13.597656 2.414062 12.917969 2.777344 C 12.238281 3.140625 11.578125 3.535156 10.9375 3.960938 C 10.296875 4.390625 9.679688 4.847656 9.085938 5.335938 C 8.488281 5.824219 7.921875 6.339844 7.375 6.886719 C 6.832031 7.429688 6.316406 8 5.828125 8.59375 C 5.335938 9.191406 4.878906 9.808594 4.453125 10.449219 C 4.023438 11.089844 3.628906 11.75 3.265625 12.425781 C 2.902344 13.105469 2.574219 13.800781 2.28125 14.511719 C 1.984375 15.226562 1.726562 15.949219 1.503906 16.6875 C 1.277344 17.421875 1.089844 18.167969 0.941406 18.921875 C 0.792969 19.679688 0.679688 20.441406 0.601562 21.207031 C 0.527344 21.972656 0.488281 22.742188 0.488281 23.511719 C 0.488281 24.28125 0.527344 25.046875 0.601562 25.816406 C 0.679688 26.582031 0.792969 27.339844 0.941406 28.097656 C 1.089844 28.851562 1.277344 29.597656 1.503906 30.335938 C 1.726562 31.070312 1.984375 31.796875 2.28125 32.507812 C 2.574219 33.21875 2.902344 33.914062 3.265625 34.59375 C 3.628906 35.273438 4.023438 35.929688 4.453125 36.570312 C 4.878906 37.210938 5.335938 37.828125 5.828125 38.425781 C 6.316406 39.019531 6.832031 39.589844 7.375 40.132812 C 7.921875 40.679688 8.488281 41.195312 9.085938 41.683594 C 9.679688 42.171875 10.296875 42.628906 10.9375 43.058594 C 11.578125 43.484375 12.238281 43.882812 12.917969 44.246094 C 13.597656 44.605469 14.292969 44.9375 15.003906 45.230469 C 15.714844 45.527344 16.4375 45.785156 17.175781 46.007812 C 17.914062 46.230469 18.65625 46.417969 19.414062 46.570312 C 20.167969 46.71875 20.929688 46.832031 21.695312 46.90625 C 22.460938 46.984375 23.230469 47.019531 24 47.019531 C 24.769531 47.019531 25.539062 46.984375 26.304688 46.90625 C 27.070312 46.832031 27.832031 46.71875 28.585938 46.570312 C 29.34375 46.417969 30.085938 46.230469 30.824219 46.007812 C 31.5625 45.785156 32.285156 45.527344 32.996094 45.230469 C 33.707031 44.9375 34.402344 44.605469 35.082031 44.246094 C 35.761719 43.882812 36.421875 43.484375 37.0625 43.058594 C 37.703125 42.628906 38.320312 42.171875 38.914062 41.683594 C 39.511719 41.195312 40.078125 40.679688 40.625 40.132812 C 41.167969 39.589844 41.683594 39.019531 42.171875 38.425781 C 42.660156 37.828125 43.121094 37.210938 43.546875 36.570312 C 43.976562 35.929688 44.371094 35.273438 44.734375 34.59375 C 45.097656 33.914062 45.425781 33.21875 45.71875 32.507812 C 46.015625 31.796875 46.273438 31.070312 46.496094 30.335938 C 46.722656 29.597656 46.910156 28.851562 47.058594 28.097656 C 47.207031 27.339844 47.320312 26.582031 47.398438 25.816406 C 47.472656 25.046875 47.511719 24.28125 47.511719 23.511719 C 47.511719 22.742188 47.472656 21.972656 47.398438 21.207031 C 47.320312 20.441406 47.207031 19.679688 47.058594 18.921875 C 46.910156 18.167969 46.722656 17.421875 46.496094 16.6875 C 46.273438 15.949219 46.015625 15.226562 45.71875 14.511719 C 45.425781 13.800781 45.097656 13.105469 44.734375 12.425781 C 44.371094 11.75 43.976562 11.089844 43.546875 10.449219 C 43.121094 9.808594 42.660156 9.191406 42.171875 8.59375 C 41.683594 8 41.167969 7.429688 40.625 6.886719 C 40.078125 6.339844 39.511719 5.824219 38.914062 5.335938 C 38.320312 4.847656 37.703125 4.390625 37.0625 3.960938 C 36.421875 3.535156 35.761719 3.140625 35.082031 2.777344 C 34.402344 2.414062 33.707031 2.085938 32.996094 1.789062 C 32.285156 1.496094 31.5625 1.234375 30.824219 1.011719 C 30.085938 0.789062 29.34375 0.601562 28.585938 0.453125 C 27.832031 0.300781 27.070312 0.1875 26.304688 0.113281 C 25.539062 0.0390625 24.769531 0 24 0 Z M 24 0 "/>
</g>
<g clip-path="url(#clip2)" clip-rule="nonzero">
<path style=" stroke:none;fill-rule:nonzero;fill:rgb(100%,100%,100%);fill-opacity:1;" d="M 40.511719 10.273438 C 40.3125 10.132812 40.054688 10.105469 39.832031 10.207031 L 36.132812 11.878906 C 32.644531 8.699219 28.117188 6.949219 23.394531 6.949219 C 18.066406 6.949219 12.960938 9.207031 9.390625 13.136719 C 9.269531 13.269531 9.203125 13.449219 9.214844 13.632812 C 9.226562 13.8125 9.3125 13.980469 9.453125 14.101562 L 13.304688 17.414062 C 13.585938 17.65625 14.003906 17.632812 14.253906 17.359375 C 16.597656 14.820312 19.929688 13.363281 23.394531 13.363281 C 25.488281 13.363281 27.566406 13.898438 29.40625 14.914062 L 26.738281 16.117188 C 26.515625 16.21875 26.363281 16.425781 26.339844 16.667969 C 26.316406 16.90625 26.421875 17.140625 26.621094 17.28125 L 38.328125 25.578125 C 38.445312 25.660156 38.585938 25.703125 38.726562 25.703125 C 38.820312 25.703125 38.917969 25.683594 39.007812 25.640625 C 39.230469 25.539062 39.382812 25.332031 39.40625 25.089844 L 40.792969 10.886719 C 40.816406 10.648438 40.710938 10.414062 40.511719 10.273438 Z M 40.511719 10.273438 "/>
</g>
<g clip-path="url(#clip3)" clip-rule="nonzero">
<path style=" stroke:none;fill-rule:nonzero;fill:rgb(100%,100%,100%);fill-opacity:1;" d="M 34.871094 29.550781 C 34.59375 29.308594 34.171875 29.335938 33.921875 29.605469 C 31.582031 32.144531 28.25 33.605469 24.78125 33.605469 C 22.6875 33.605469 20.609375 33.066406 18.769531 32.054688 L 21.441406 30.847656 C 21.660156 30.75 21.8125 30.539062 21.835938 30.300781 C 21.859375 30.058594 21.753906 29.824219 21.554688 29.683594 L 9.847656 21.390625 C 9.648438 21.25 9.390625 21.226562 9.167969 21.324219 C 8.945312 21.425781 8.796875 21.636719 8.773438 21.875 L 7.382812 36.078125 C 7.359375 36.316406 7.46875 36.550781 7.664062 36.691406 C 7.863281 36.835938 8.121094 36.859375 8.34375 36.757812 L 12.042969 35.089844 C 15.535156 38.265625 20.058594 40.015625 24.78125 40.015625 C 30.113281 40.015625 35.21875 37.761719 38.785156 33.828125 C 38.910156 33.695312 38.972656 33.515625 38.960938 33.335938 C 38.949219 33.152344 38.863281 32.984375 38.726562 32.867188 Z M 34.871094 29.550781 "/>
</g>
</g>
</svg>
