<?xml version="1.0" encoding="UTF-8"?>
<svg xmlns="http://www.w3.org/2000/svg" xmlns:xlink="http://www.w3.org/1999/xlink" width="48pt" height="48pt" viewBox="0 0 48 48" version="1.2">
<defs>
<clipPath id="clip1">
  <path d="M 2.285156 1.796875 L 45.632812 1.796875 L 45.632812 45 L 2.285156 45 Z M 2.285156 1.796875 "/>
</clipPath>
</defs>
<g id="surface1">
<g clip-path="url(#clip1)" clip-rule="nonzero">
<path style=" stroke:none;fill-rule:evenodd;fill:rgb(85.099792%,85.099792%,85.099792%);fill-opacity:1;" d="M 34.023438 31.84375 C 34.671875 29.511719 35.058594 26.917969 35.132812 24.160156 L 24.765625 24.160156 L 24.765625 31.078125 C 28.394531 31.121094 31.464844 31.394531 34.023438 31.84375 Z M 33.511719 33.507812 C 31.097656 33.09375 28.195312 32.84375 24.765625 32.804688 L 24.765625 43.121094 C 28.378906 42.605469 31.644531 38.902344 33.511719 33.507812 Z M 13.777344 31.84375 C 16.335938 31.394531 19.40625 31.121094 23.035156 31.078125 L 23.035156 24.160156 L 12.667969 24.160156 C 12.742188 26.917969 13.128906 29.511719 13.777344 31.84375 Z M 14.289062 33.507812 C 16.15625 38.902344 19.425781 42.605469 23.035156 43.121094 L 23.035156 32.804688 C 19.605469 32.84375 16.703125 33.09375 14.289062 33.507812 Z M 7.121094 33.96875 C 7.75 33.617188 8.617188 33.230469 9.734375 32.851562 C 10.453125 32.609375 11.226562 32.390625 12.074219 32.195312 C 11.410156 29.726562 11.011719 27.015625 10.941406 24.160156 L 4.03125 24.160156 C 4.183594 27.761719 5.300781 31.113281 7.121094 33.96875 Z M 8.121094 35.410156 C 10.507812 38.5 13.777344 40.875 17.550781 42.144531 C 15.46875 40.199219 13.75 37.320312 12.578125 33.851562 C 11.742188 34.039062 10.984375 34.257812 10.28125 34.492188 C 9.398438 34.789062 8.6875 35.09375 8.121094 35.410156 Z M 40.679688 33.96875 C 42.5 31.113281 43.617188 27.761719 43.769531 24.160156 L 36.859375 24.160156 C 36.789062 27.015625 36.394531 29.726562 35.726562 32.195312 C 36.574219 32.390625 37.347656 32.609375 38.066406 32.851562 C 39.183594 33.230469 40.050781 33.617188 40.679688 33.96875 Z M 39.679688 35.410156 C 39.113281 35.09375 38.402344 34.789062 37.519531 34.492188 C 36.816406 34.257812 36.058594 34.039062 35.222656 33.851562 C 34.050781 37.320312 32.332031 40.199219 30.25 42.144531 C 34.023438 40.875 37.292969 38.5 39.679688 35.410156 Z M 34.023438 14.75 C 31.464844 15.199219 28.394531 15.46875 24.765625 15.515625 L 24.765625 22.429688 L 35.132812 22.429688 C 35.058594 19.675781 34.671875 17.082031 34.023438 14.75 Z M 33.511719 13.082031 C 31.644531 7.6875 28.378906 3.984375 24.765625 3.472656 L 24.765625 13.785156 C 28.195312 13.75 31.097656 13.496094 33.511719 13.082031 Z M 13.777344 14.75 C 13.128906 17.082031 12.742188 19.675781 12.667969 22.429688 L 23.035156 22.429688 L 23.035156 15.515625 C 19.40625 15.46875 16.335938 15.199219 13.777344 14.75 Z M 14.289062 13.082031 C 16.703125 13.496094 19.605469 13.75 23.035156 13.785156 L 23.035156 3.472656 C 19.425781 3.984375 16.15625 7.6875 14.289062 13.082031 Z M 7.121094 12.621094 C 5.300781 15.476562 4.183594 18.828125 4.03125 22.429688 L 10.941406 22.429688 C 11.011719 19.574219 11.410156 16.863281 12.074219 14.398438 C 11.226562 14.199219 10.453125 13.984375 9.734375 13.738281 C 8.617188 13.363281 7.75 12.972656 7.121094 12.621094 Z M 8.121094 11.183594 C 8.6875 11.496094 9.398438 11.804688 10.28125 12.101562 C 10.984375 12.335938 11.742188 12.550781 12.578125 12.738281 C 13.75 9.273438 15.46875 6.390625 17.550781 4.445312 C 13.777344 5.714844 10.507812 8.09375 8.121094 11.183594 Z M 40.679688 12.621094 C 40.050781 12.972656 39.183594 13.363281 38.066406 13.738281 C 37.347656 13.984375 36.574219 14.199219 35.726562 14.398438 C 36.394531 16.863281 36.789062 19.574219 36.859375 22.429688 L 43.769531 22.429688 C 43.617188 18.828125 42.5 15.476562 40.679688 12.621094 Z M 39.679688 11.183594 C 37.292969 8.09375 34.023438 5.714844 30.25 4.445312 C 32.332031 6.390625 34.050781 9.273438 35.222656 12.738281 C 36.058594 12.550781 36.816406 12.335938 37.519531 12.101562 C 38.402344 11.804688 39.113281 11.496094 39.679688 11.183594 Z M 23.902344 44.910156 C 11.96875 44.910156 2.285156 35.230469 2.285156 23.296875 C 2.285156 11.363281 11.96875 1.679688 23.902344 1.679688 C 35.835938 1.679688 45.515625 11.363281 45.515625 23.296875 C 45.515625 35.230469 35.835938 44.910156 23.902344 44.910156 Z M 23.902344 44.910156 "/>
</g>
</g>
</svg>
